<svg width="455" height="418" viewBox="0 0 455 418" fill="none" xmlns="http://www.w3.org/2000/svg">
<g clip-path="url(#clip0_2017_911)">
<rect width="455" height="418" fill="white"/>
<path d="M384.637 358.56C382.737 358.56 379.816 357 380.815 355.999C381.166 355.735 381.658 355.648 382.209 355.648C382.773 355.648 383.402 355.739 384.017 355.83C384.634 355.921 385.238 356.018 385.749 356.018C386.158 356.018 386.509 355.956 386.762 355.79C386.315 356.546 386.129 357.826 385.579 358.377C385.328 358.504 385.001 358.56 384.637 358.56ZM283.584 -44.0581C281.997 -41.6771 279.617 -39.6891 279.221 -36.9131C278.824 -35.7221 281.601 -34.9291 281.601 -33.7391C281.601 -33.6011 281.542 -33.5491 281.445 -33.5491C281.229 -33.5491 280.82 -33.8091 280.37 -34.0701C279.92 -34.3301 279.436 -34.5901 279.072 -34.5901C278.982 -34.5901 278.898 -34.5731 278.824 -34.5371C278.428 -33.7391 280.411 -32.1521 279.623 -31.3591C279.623 -31.3591 277.445 -33.2471 276.164 -33.2471C275.325 -33.2471 274.867 -32.4421 275.65 -29.7721C276.449 -27.3921 282.006 -25.4081 280.419 -23.4161C279.805 -22.6821 278.957 -22.4001 278.003 -22.4001C275.879 -22.4001 273.205 -23.7841 271.287 -24.6071C270.288 -24.6071 269.283 -26.8631 268.99 -26.8631C268.936 -26.8631 268.907 -26.7841 268.907 -26.5981C268.511 -23.8171 272.086 -20.2441 270.499 -17.4711C270.346 -17.0821 270.024 -16.9371 269.61 -16.9371C268.958 -16.9371 268.069 -17.3011 267.217 -17.6661C266.366 -18.0291 265.556 -18.3961 265.052 -18.3961C264.738 -18.3961 264.543 -18.2521 264.543 -17.8681C264.147 -12.7071 268.514 -12.3101 267.32 -7.1481C267.32 -7.0701 267.303 -7.02411 267.233 -7.02411C266.944 -7.02411 265.692 -7.84311 260.573 -10.7231C259.948 -11.0861 259.481 -11.2471 259.131 -11.2471C256.824 -11.2471 259.754 -4.2681 256.998 -3.5831C256.879 -3.5411 256.763 -3.52411 256.651 -3.52411C255.696 -3.52411 255.085 -4.95811 254.518 -6.39111C253.951 -7.82411 253.428 -9.25911 252.655 -9.25911C252.522 -9.25911 252.387 -9.21711 252.237 -9.13011C243.507 -5.56111 256.6 8.3309 256.998 9.1209C257.796 10.7069 257.399 13.0909 257.399 15.4719C257.399 18.6459 258.985 22.6159 256.998 24.9959C256.436 25.6689 255.56 25.8679 254.564 25.8679C253.853 25.8679 253.081 25.7679 252.32 25.6649C251.555 25.5659 250.803 25.4629 250.134 25.4629C249.092 25.4629 248.245 25.7109 247.874 26.5829C247.874 26.5829 261.36 33.7279 250.65 36.1069C250.328 36.1899 250.01 36.2219 249.691 36.2219C248.456 36.2219 247.278 35.6679 246.129 35.1149C244.983 34.5619 243.868 34.0089 242.762 34.0089C242.481 34.0089 242.2 34.0449 241.919 34.1229C230.803 36.9039 242.318 41.6639 240.732 45.6369C240.599 45.8969 240.216 45.9949 239.653 45.9949C238.694 45.9949 237.228 45.7059 235.617 45.4169C234.01 45.1319 232.258 44.8429 230.741 44.8429C229.204 44.8429 227.907 45.1409 227.237 46.0319C224.063 50.7919 249.063 50.3959 245.492 51.9869C244.736 52.3089 243.951 52.4279 243.146 52.4279C240.988 52.4279 238.674 51.5849 236.361 51.5849C235.571 51.5849 233.894 51.0569 232.98 51.0569C232.526 51.0569 232.261 51.1879 232.394 51.5849C232.79 53.5719 233.583 55.1599 234.377 56.3499C233.583 55.9529 232.789 55.1609 232.394 54.3669C231.204 53.1759 230.406 51.5859 229.617 49.9999C211.754 55.9529 236.758 51.5859 230.41 59.9239C226.621 65.0719 225.204 66.5239 224.461 66.5239C223.982 66.5239 223.778 65.9249 223.402 65.3259C223.026 64.7219 222.473 64.1229 221.291 64.1229C220.685 64.1229 219.907 64.2849 218.898 64.6849C218.501 64.6849 218.105 65.8759 218.501 66.2729C219.362 67.9969 221.485 68.6489 224.098 68.6489C229.908 68.6489 238.138 65.4139 240.331 63.5009C241.13 62.7029 239.535 61.9139 239.146 61.1199C238.348 60.7239 237.947 60.3269 237.549 59.5299C238.079 59.7639 238.628 59.8679 239.207 59.8679C242.537 59.8679 246.648 56.3439 251.046 53.9799C253.426 52.7899 253.028 51.9929 255.81 50.0089C256.74 49.0739 258.885 47.6569 259.397 47.6569C259.538 47.6569 259.55 47.7679 259.379 48.0249C258.583 50.4009 254.619 50.7959 254.619 53.1849C254.619 53.8229 255.637 53.9459 256.777 53.9459C257.161 53.9459 257.552 53.9329 257.928 53.9219C258.305 53.9049 258.664 53.8929 258.97 53.8929C259.734 53.8929 260.177 53.9799 259.78 54.3759C259.379 54.3759 243.111 57.1529 245.888 62.7099C247.077 64.6929 251.442 64.6929 251.442 66.6819C251.442 67.0539 251.318 67.2029 251.102 67.2029C250.657 67.2029 249.827 66.5709 248.904 65.9369C247.983 65.3009 246.967 64.6689 246.152 64.6689C246.061 64.6689 245.975 64.6779 245.888 64.6929C243.905 65.0939 241.917 67.4739 241.128 69.8579C239.937 72.6309 241.128 79.7799 239.541 82.9579C237.945 85.7349 230.013 87.3209 232.396 89.3049C232.578 89.4159 232.755 89.4609 232.924 89.4609C233.71 89.4609 234.383 88.4109 235.098 87.3609C235.813 86.3119 236.57 85.2619 237.516 85.2619C237.651 85.2619 237.796 85.2829 237.945 85.3329C243.503 86.5219 231.996 93.2699 232.788 94.8569C233.024 95.4439 233.573 95.6169 234.247 95.6169C234.714 95.6169 235.239 95.5349 235.768 95.4509C236.293 95.3729 236.818 95.2909 237.285 95.2909C237.959 95.2909 238.504 95.4599 238.74 96.0469L230.402 103.192C228.026 106.37 228.814 111.527 226.434 114.704C225.245 116.686 219.686 119.86 222.071 121.057C222.972 121.395 223.902 121.538 224.836 121.538C227.203 121.538 229.6 120.603 231.592 119.464C232.39 119.068 230.005 117.481 230.403 116.687C231.592 113.515 234.774 111.923 235.96 108.75C236.361 107.956 235.563 106.374 235.96 105.175C236.331 105.282 236.692 105.329 237.034 105.329C238.935 105.329 240.365 103.899 241.034 103.229C242.223 102.039 241.915 101.208 242.31 99.6219C243.038 95.6229 253.335 93.4289 257.5 90.9529L257.789 92.0859C257.789 92.6919 269.37 98.3959 268.999 98.3959C268.883 98.3959 267.632 97.8489 264.54 96.4449C262.013 95.3259 259.686 93.0149 257.978 93.0149C257.267 93.0149 256.668 93.4159 256.202 94.4609C255.012 97.6349 256.202 101.209 255.012 103.985C254.616 105.174 252.235 105.174 252.632 106.37C253.028 107.162 260.57 116.291 258.983 119.066C258.186 120.659 255.41 120.659 254.223 121.847C249.665 125.976 248.992 126.884 249.526 126.884C249.737 126.884 250.128 126.743 250.55 126.603C250.967 126.462 251.413 126.327 251.715 126.327C252.492 126.327 252.372 127.232 248.665 131.368C243.111 137.724 241.525 136.928 241.918 146.055C242.317 148.037 232.789 146.055 236.757 148.43C240.33 150.541 242.446 151.233 243.728 151.233C244.939 151.233 245.401 150.613 245.644 149.998C245.889 149.378 245.918 148.763 246.26 148.763C246.781 148.763 248.02 150.185 251.838 155.189C253.181 157.202 254.81 162.06 256.239 162.06C256.5 162.06 256.752 161.9 256.995 161.537C260.652 155.689 254.545 149.496 257.9 149.496C258.189 149.496 258.545 149.54 258.982 149.637C263.351 150.434 263.351 156.38 265.334 158.762C265.615 159.041 266.095 159.324 266.491 159.324C266.656 159.324 266.804 159.272 266.921 159.159C267.66 158.418 267.362 155.947 268.293 155.947C268.358 155.947 268.429 155.96 268.507 155.985C269.697 156.381 267.318 158.365 267.714 159.553C267.945 160.02 268.453 160.214 268.99 160.214C269.37 160.214 269.767 160.119 270.094 159.954C272.076 159.157 273.266 157.178 275.646 156.38C275.875 156.334 276.106 156.315 276.341 156.315C277.044 156.315 277.783 156.49 278.527 156.663C279.266 156.832 280.015 157.006 280.734 157.006C281.167 157.006 281.589 156.944 281.994 156.782C284.375 155.985 285.572 152.811 287.948 152.02C288.13 151.985 288.303 151.967 288.482 151.967C290.224 151.967 291.667 153.645 293.109 154.004C293.299 154.036 293.51 154.049 293.737 154.049C294.555 154.049 295.567 153.867 296.56 153.69C297.546 153.508 298.505 153.328 299.212 153.328C300.05 153.328 300.525 153.584 300.253 154.403C299.455 157.178 295.092 157.971 291.911 158.766C291.84 158.801 291.778 158.819 291.724 158.819C291.178 158.819 291.444 157.141 290.724 156.782C290.323 156.782 277.233 169.881 277.621 174.641L282.39 184.567C282.786 186.947 278.819 191.314 283.579 192.9C283.644 192.917 283.707 192.924 283.773 192.924C284.429 192.924 285.145 192.144 285.81 191.362C286.471 190.582 287.082 189.797 287.53 189.797C287.69 189.797 287.826 189.898 287.942 190.123C289.132 193.297 284.368 200.842 287.942 200.842C292.294 200.529 296.157 193.884 297.818 193.884C298.281 193.884 298.57 194.393 298.657 195.681C299.054 198.856 295.483 200.842 294.294 203.617C293.1 206.392 296.281 205.203 295.88 207.587C295.88 208.827 294.968 209.154 293.711 209.154C293.008 209.154 292.199 209.053 291.376 208.951C290.559 208.847 289.727 208.749 288.987 208.749C286.682 208.749 285.223 209.728 287.547 214.731C288.339 217.111 293.1 217.111 293.898 219.491C294.294 221.477 290.323 220.29 288.737 221.477C286.754 223.066 284.369 225.048 283.968 227.432C283.558 229.684 283.794 232.349 284.6 234.683C283.645 234.412 282.789 234.287 282.105 234.287C281.142 234.287 280.509 234.53 280.397 234.968C279.605 237.745 283.968 242.116 281.588 243.704C281.315 243.886 281.06 243.968 280.823 243.968C279.009 243.968 278.187 239.106 276.426 237.348C275.385 236.41 274.534 236.077 273.744 236.077C272.749 236.077 271.848 236.613 270.79 237.151C269.728 237.688 268.509 238.223 266.865 238.223C266.502 238.223 266.116 238.201 265.713 238.141C262.936 237.745 261.348 234.573 258.572 234.175C258.494 234.151 258.426 234.133 258.378 234.133C257.688 234.133 259.709 236.575 258.969 236.947C256.44 237.85 254.569 238.1 253.019 238.1C251.16 238.1 249.767 237.744 248.254 237.744C247.061 238.14 245.473 238.537 243.887 239.728C243.093 240.124 242.301 240.916 241.511 242.115C240.713 243.302 241.11 245.289 240.321 246.475C235.161 250.446 226.83 250.837 227.62 253.62C228.359 257.971 229.442 259.458 230.761 259.458C232.178 259.458 233.867 257.738 235.694 256.02C237.521 254.304 239.487 252.585 241.463 252.585C242.541 252.585 243.624 253.103 244.687 254.411C247.063 256.8 248.658 272.283 247.864 273.87C245.484 279.42 232.783 290.141 226.431 291.727C226.248 291.764 226.072 291.782 225.89 291.782C224.088 291.782 222.279 290.14 220.477 290.14C217.7 290.537 217.303 294.503 214.923 295.297C214.741 295.371 214.456 295.401 214.08 295.401C213.25 295.401 211.989 295.252 210.538 295.103C209.088 294.955 207.444 294.8 205.84 294.8C201.924 294.8 198.254 295.694 198.254 299.659C198.254 302.435 197.46 305.618 199.052 307.998C200.238 309.585 211.354 309.985 210.167 310.378C209.873 310.427 209.559 310.444 209.225 310.444C208.655 310.444 208.038 310.389 207.415 310.332C206.795 310.279 206.163 310.221 205.571 310.221C204.287 310.221 203.166 310.482 202.625 311.569C201.833 313.156 205.402 315.536 207.386 315.927C208.084 316.163 208.849 316.258 209.643 316.258C211.559 316.258 213.639 315.696 215.325 315.134C216.123 314.336 215.725 311.96 216.915 311.96C219.874 311.098 221.567 310.813 222.581 310.813C223.609 310.813 223.939 311.107 224.176 311.404C224.41 311.702 224.552 312 225.208 312C225.333 312 225.477 311.987 225.646 311.962C226.329 311.962 226.712 310.214 227.061 310.214C227.118 310.214 227.175 310.266 227.234 310.376C227.63 311.565 228.42 323.867 229.217 324.269C229.713 324.517 230.245 324.623 230.794 324.623C232.308 324.623 233.981 323.829 235.63 323.041C237.274 322.247 238.889 321.453 240.282 321.453C241.038 321.453 241.728 321.689 242.318 322.28C245.889 325.854 245.091 332.596 249.063 335.383C252.343 337.243 254.542 337.957 256.208 337.957C260.591 337.957 261.327 333.028 268.512 331.011C268.619 330.975 268.728 330.957 268.831 330.957C269.854 330.957 270.606 332.599 271.69 332.599C273.672 332.202 275.656 331.801 277.64 331.011C279.002 329.991 288.557 323.706 289.726 323.706C289.916 323.706 289.883 323.875 289.544 324.268C287.16 327.04 268.111 338.954 267.714 339.743C266.524 342.123 267.318 346.091 264.938 348.078C263.272 349.395 261.487 349.916 259.639 349.916C253.128 349.916 245.811 343.449 239.938 342.523C237.154 342.027 234.884 341.808 233.03 341.808C226.766 341.808 225.217 344.28 224.386 346.75C223.551 349.216 223.431 351.688 220.019 351.688C219.79 351.688 219.555 351.674 219.299 351.654C217.808 351.283 216.308 348.44 214.811 348.44C214.72 348.44 214.625 348.448 214.535 348.473C211.758 349.67 212.155 358.789 210.966 360.376C208.979 362.756 205.407 363.151 203.42 365.145C202.233 365.943 202.626 367.525 201.438 368.319C201.3 368.365 201.153 368.383 200.995 368.383C200.537 368.383 200.004 368.214 199.466 368.04C198.93 367.871 198.385 367.698 197.889 367.698C197.595 367.698 197.319 367.76 197.076 367.92C194.299 369.905 193.505 373.476 190.72 375.856C190.6 375.918 190.464 375.938 190.315 375.938C190.023 375.938 189.679 375.847 189.333 375.755C188.985 375.664 188.63 375.577 188.309 375.573C188.02 375.573 187.754 375.647 187.548 375.854C186.754 376.25 187.548 377.836 186.754 378.234C185.564 379.829 183.978 381.417 182.392 381.812C181.991 381.812 166.116 382.61 166.116 385.381C166.116 389.744 175.64 386.967 178.02 390.936C179.606 392.918 178.419 398.081 180.795 398.48C182.383 398.48 187.151 388.551 187.94 386.572C188.337 386.176 188.738 386.176 189.127 386.176C191.351 386.176 193.573 387.193 195.594 387.193C196.099 387.193 196.595 387.128 197.07 386.968C198.656 386.176 197.863 382.611 199.845 382.208C200.626 381.986 201.429 381.888 202.246 381.888C207.255 381.888 212.815 385.547 216.911 386.573C217.493 386.706 217.932 386.767 218.258 386.767C219.377 386.767 219.155 386.078 218.696 385.382C218.238 384.693 217.541 384.001 217.705 384.001C217.754 384.001 217.879 384.061 218.102 384.195C221.023 385.658 228.328 395.538 233.183 395.538C233.601 395.538 233.997 395.468 234.373 395.311C240.327 392.526 244.691 373.477 244.691 373.477C246.409 372.807 248.584 372.509 250.971 372.509C258.511 372.509 268.156 375.509 272.077 379.435C274.064 381.022 276.048 382.609 276.837 384.591C277.192 385.653 275.974 388.284 276.263 388.284C276.297 388.284 276.354 388.248 276.441 388.161C277.628 386.179 276.837 382.611 279.222 381.418C279.387 381.352 279.581 381.323 279.8 381.323C282.225 381.323 287.722 385.087 289.535 386.177H289.931C290.794 386.177 292.08 387.016 292.873 387.016C293.17 387.016 293.397 386.9 293.51 386.573C293.906 384.197 289.931 381.418 291.125 379.433C291.212 379.306 291.552 379.245 292.084 379.245C293.575 379.245 296.597 379.676 299.951 380.1C303.306 380.531 306.996 380.954 309.826 380.954C312.512 380.954 314.425 380.57 314.541 379.431C314.938 377.041 310.178 374.263 311.765 372.283C311.847 372.2 311.942 372.164 312.045 372.164C313.454 372.164 316.864 379.139 321.293 380.622C321.326 380.636 321.355 380.64 321.384 380.64C321.785 380.64 321.802 379.589 321.847 378.54C321.889 377.49 321.958 376.44 322.467 376.44C322.732 376.44 323.112 376.721 323.669 377.439C324.467 378.629 322.083 380.622 323.268 381.023C323.348 381.045 323.43 381.059 323.508 381.059C324.029 381.059 324.545 380.542 325.063 380.026C325.579 379.505 326.095 378.99 326.611 378.99C326.689 378.99 326.769 379.002 326.847 379.027C328.036 379.027 325.261 380.225 325.261 381.416C325.582 382.064 326.438 382.709 327.17 382.709C327.335 382.709 327.495 382.681 327.64 382.605C328.293 381.626 327.599 379.027 328.661 379.027C328.891 379.027 329.202 379.146 329.624 379.431C333.59 382.202 328.036 380.618 328.433 382.605C328.814 383.993 331.081 384.457 334.091 384.457C337.115 384.457 340.887 383.99 344.235 383.519C347.582 383.052 350.499 382.581 351.822 382.581C351.991 382.581 352.131 382.59 352.247 382.606C355.822 383.4 362.173 390.138 365.738 390.138C368.119 390.138 368.912 386.963 370.903 386.171C375.266 384.188 379.238 385.373 383.597 382.601C384.41 382.083 384.949 381.882 385.332 381.882C386.002 381.882 386.2 382.497 386.563 383.11C386.93 383.721 387.463 384.334 388.802 384.334C389.48 384.334 390.364 384.183 391.538 383.788C393.525 382.995 392.33 379.02 393.916 377.829C397.889 375.848 405.033 377.433 406.218 373.472C406.619 370.297 406.218 367.521 407.016 364.744C407.413 363.147 411.379 361.165 409.793 360.772C408.49 360.251 407.189 360.053 405.888 360.053C403.826 360.053 401.773 360.553 399.743 361.057C397.72 361.557 395.72 362.057 393.764 362.057C393.281 362.057 392.801 362.028 392.326 361.957C380.814 359.975 397.876 362.755 392.326 357.599C390.904 356.537 389.487 355.156 388.07 355.156C387.901 355.156 387.73 355.177 387.561 355.219L386.978 355.535L387.165 355.219C387.331 353.057 385.405 352.429 383.078 352.429C379.859 352.429 375.885 353.63 375.653 353.63C374.464 352.838 377.64 351.648 378.827 351.254C379.777 350.907 380.934 350.81 382.195 350.81C383.087 350.81 384.028 350.859 384.987 350.909C385.946 350.963 386.918 351.013 387.872 351.013C390.831 351.013 393.595 350.53 395.103 348.075C396.289 346.088 397.478 342.914 395.901 341.326C395.478 340.803 394.666 340.638 393.723 340.638C392.954 340.638 392.095 340.744 391.288 340.856C390.486 340.962 389.734 341.071 389.177 341.071C388.401 341.071 387.995 340.86 388.355 340.142C389.941 337.761 394.709 338.555 397.883 338.155C398.28 338.155 398.28 338.951 398.676 338.951C399.647 339.601 400.363 340.245 401.239 340.245C401.432 340.245 401.638 340.216 401.858 340.142C417.732 335.779 399.072 337.761 402.651 330.613C402.791 330.266 403.014 330.126 403.299 330.126C403.916 330.126 404.816 330.767 405.808 331.407C406.795 332.048 407.866 332.687 408.816 332.687C409.018 332.687 409.212 332.659 409.399 332.596C416.146 330.215 425.274 312.358 426.464 305.615C430.426 284.161 408.592 278.21 395.102 276.227C394.28 276.111 393.598 276.053 393.028 276.053C387.805 276.053 391.945 280.704 384.784 285.35C384.594 285.479 384.384 285.532 384.16 285.532C382.982 285.532 381.421 283.97 380.421 282.97C379.232 281.783 378.834 279.401 377.248 278.208C377.073 278.035 376.788 277.979 376.45 277.979C376.07 277.979 375.633 278.053 375.211 278.126C374.788 278.2 374.392 278.275 374.104 278.275C373.748 278.275 373.553 278.164 373.669 277.811C377.64 267.887 380.023 274.242 385.577 268.679C392.718 261.146 378.437 246.061 378.437 244.081C378.557 241.526 379.239 240.8 380.065 240.8C380.615 240.8 381.235 241.122 381.796 241.447C382.358 241.774 382.862 242.095 383.192 242.095C383.65 242.095 383.762 241.464 383.196 239.312C381.61 233.758 374.064 224.622 375.651 218.276C376.052 215.9 380.42 215.9 380.42 213.515C380.42 205.573 374.863 209.542 372.878 205.176C370.891 202.001 372.082 197.241 369.702 194.457C362.958 186.126 364.545 189.696 357.4 185.337C355.814 184.54 354.628 182.562 353.033 182.164C352.971 182.131 352.908 182.117 352.846 182.117C352.536 182.117 352.235 182.467 351.962 182.816C351.685 183.163 351.441 183.515 351.246 183.515C351.172 183.515 351.106 183.464 351.049 183.348C348.669 177.395 345.892 148.019 345.495 140.879C345.495 138.502 345.495 135.722 345.895 133.338C345.895 132.149 346.692 131.351 346.292 130.562C345.097 128.975 342.717 128.579 341.131 126.992C338.35 123.815 337.163 113.894 334.379 111.907C332.82 110.348 318.238 99.5959 316.971 99.5959C316.95 99.5959 316.929 99.5959 316.916 99.6049C315.33 100.402 314.929 103.178 313.343 104.365C312.681 104.806 311.913 104.989 311.077 104.989C307.396 104.989 302.437 101.443 299.85 100.795C299.632 100.763 299.451 100.75 299.301 100.75C298.611 100.75 298.574 101.044 298.627 101.34C298.682 101.633 298.834 101.927 298.527 101.927C298.354 101.927 298.036 101.832 297.469 101.593C297.073 101.593 297.073 97.2259 297.469 97.2259C301.515 97.5359 304.378 97.6709 306.383 97.6709C317.154 97.6709 302.974 93.7409 313.344 92.0679C313.406 92.0589 313.473 92.0509 313.542 92.0509C314.357 92.0509 315.675 92.7159 317.15 93.3809C318.621 94.0459 320.245 94.7119 321.658 94.7119C323.393 94.7119 324.81 93.7119 325.254 90.4819C325.65 87.7009 320.485 86.9029 319.299 84.1289C318.952 83.0879 322.245 79.9229 319.361 79.4069C319.866 79.4379 320.386 79.4599 320.932 79.4599C321.542 79.4599 322.184 79.4319 322.87 79.3649C328.03 78.9639 344.699 55.5479 347.877 49.5969C348.278 49.1969 347.481 48.4069 347.877 47.6099C348.278 45.6279 349.066 43.6429 350.253 42.0559L359.385 32.9289C360.179 30.5529 359.781 28.1639 358.984 25.7879C355.415 17.8499 333.188 18.2469 326.445 16.2639C323.664 15.4659 321.279 12.6849 318.503 12.2929C317.892 12.1599 317.275 12.1039 316.665 12.1039C311.735 12.1039 306.904 15.9139 303.024 16.2639C300.913 16.2639 299.107 15.0119 297.339 15.0119C297.119 15.0119 296.896 15.0289 296.678 15.0739C295.879 15.0739 297.866 16.2639 297.47 17.0579C296.974 17.6519 296.131 17.9499 295.194 17.9499C292.389 17.9499 288.74 15.2719 291.12 9.91789C291.505 9.01689 291.81 8.7399 292.137 8.7399C292.394 8.7399 292.662 8.9049 292.996 9.0699C293.331 9.2359 293.732 9.40089 294.252 9.40089C294.603 9.40089 295.008 9.32689 295.487 9.11989C296.546 8.76889 297.607 7.47189 298.946 7.47189C299.111 7.47189 299.28 7.48889 299.454 7.53389C300.252 7.53389 299.454 10.3089 300.252 10.3089C302.235 9.9129 303.024 7.9289 304.223 6.7399C305.81 5.5459 309.379 3.9589 307.793 3.1619C306.959 2.4959 305.789 2.2659 304.541 2.2659C303.182 2.2659 301.727 2.5379 300.496 2.8069C299.264 3.0749 298.261 3.34489 297.798 3.34489C297.124 3.34489 297.608 2.7699 300.256 0.784897C305.017 -2.7881 330.019 -17.8711 330.817 -19.8541C331.615 -22.2351 330.817 -24.6151 331.615 -26.9991C332.801 -29.3751 337.962 -31.3621 335.974 -33.3501C335.366 -34.0791 334.532 -34.3221 333.581 -34.3221C332.609 -34.3221 331.516 -34.0701 330.398 -33.8171C329.288 -33.5661 328.16 -33.3101 327.123 -33.3101C326.895 -33.3101 326.673 -33.3211 326.453 -33.3501C320.388 -34.2601 311.086 -35.8631 304.376 -35.8631C302.297 -35.8631 300.472 -35.7101 299.063 -35.3341C297.666 -34.9831 296.884 -31.5541 295.629 -31.5541C295.458 -31.5541 295.281 -31.6191 295.091 -31.7611C293.108 -33.3511 295.889 -38.5081 293.505 -39.3021C293.401 -39.3151 293.302 -39.3221 293.207 -39.3221C292.451 -39.3221 291.847 -38.9101 291.311 -38.3101C290.343 -40.8231 285.799 -42.9541 283.584 -44.0581Z" fill="#BDC2C4"/>
<path d="M97.2709 235.523C94.1959 235.523 89.1759 234.967 84.3699 234.324C88.2789 232.845 93.4609 227.972 94.3199 227.972C94.3739 227.972 94.4069 227.993 94.4259 228.031C94.8269 229.22 93.2369 231.213 93.6339 232.402C94.8269 234.384 101.972 233.99 99.9849 235.173C99.5589 235.42 98.5909 235.523 97.2709 235.523ZM147.743 112.858C147.56 112.858 147.387 112.882 147.222 112.937C126.587 122.461 143.653 115.713 142.065 122.461C141.665 123.654 138.095 123.654 138.888 124.443C140.077 125.634 143.653 128.414 141.664 128.81C141.545 128.834 141.425 128.843 141.296 128.843C140.515 128.843 139.594 128.425 138.673 128.009C137.755 127.591 136.834 127.168 136.053 127.168C135.623 127.168 135.24 127.298 134.916 127.62C133.731 129.206 140.077 131.591 138.491 132.38C138.384 132.416 138.267 132.433 138.138 132.433C137.23 132.433 135.805 131.582 134.223 130.728C132.639 129.875 130.904 129.026 129.374 129.026C127.857 129.026 126.544 129.865 125.788 132.38C124.599 137.14 132.531 137.537 134.127 138.329C134.523 138.329 134.523 139.127 134.523 139.528C134.523 140.321 133.33 141.904 134.127 141.904C134.296 141.917 134.457 141.925 134.609 141.925C136.266 141.925 137.183 141.218 137.738 140.515C138.292 139.81 138.477 139.107 138.668 139.107C138.812 139.107 138.961 139.534 139.283 140.714C139.283 140.896 139.651 140.954 140.209 140.954C140.7 140.954 141.342 140.908 142.002 140.863C142.663 140.817 143.346 140.77 143.924 140.77C144.978 140.77 145.671 140.924 145.234 141.51C143.251 143.887 140.876 146.27 137.697 147.459C137.697 147.559 136.954 147.559 135.822 147.559C135.735 147.559 135.644 147.559 135.55 147.559C132.082 147.559 125.582 147.625 124.999 150.233C124.6 153.407 128.57 156.592 127.375 159.365C127.355 159.425 127.313 159.448 127.252 159.448C126.682 159.448 124.363 157.192 121.694 154.932C119.024 152.672 116.005 150.411 114.029 150.411C113.677 150.411 113.364 150.481 113.088 150.636C111.253 151.73 111.116 155.888 109.228 155.888C109.072 155.888 108.906 155.863 108.724 155.8C106.343 155.007 107.927 150.636 106.741 147.859C105.311 144.157 95.2859 143.112 88.4279 143.112C85.7349 143.112 83.5319 143.273 82.5269 143.497C78.9579 144.295 82.9239 143.893 82.5269 145.478C81.7349 147.466 77.7629 149.45 79.3549 151.034C79.5439 151.222 79.7539 151.306 79.9869 151.306C80.7169 151.306 81.6229 150.474 82.5269 149.644C83.4329 148.814 84.3379 147.984 85.0699 147.984C85.2999 147.984 85.5109 148.066 85.7009 148.255C87.6929 150.636 84.1149 154.204 84.1149 156.989C84.5119 157.385 88.4819 161.352 86.0979 162.94C85.7009 163.333 84.9569 163.422 84.1679 163.422C83.8489 163.422 83.5229 163.405 83.2089 163.393C82.8959 163.376 82.5939 163.365 82.3279 163.365C81.5269 163.365 81.0229 163.494 81.3379 164.126C81.4849 164.8 82.1309 165.022 83.0399 165.022C83.9289 165.022 85.0689 164.811 86.2539 164.6C87.4409 164.389 88.6719 164.174 89.7419 164.174C92.3229 164.174 93.9469 165.413 91.6549 170.881C91.2549 171.674 90.4649 172.068 89.6669 172.068C86.9439 172.068 84.2269 170.319 81.7549 170.319C81.3419 170.319 80.9409 170.37 80.5439 170.48C77.3619 171.278 75.3779 174.055 73.7919 176.828C73.3959 177.229 75.3779 178.414 74.9819 178.815C74.8029 178.815 71.3709 177.838 68.4779 177.838C64.9779 177.838 62.2629 179.265 67.0439 185.567C70.2179 190.327 81.3319 185.17 83.3189 192.31C85.3019 199.053 76.9649 198.658 85.3019 201.045C94.0379 203.42 101.971 201.837 102.367 203.027C102.367 204.215 99.5909 203.82 99.5909 205.009C99.5909 205.606 100.587 205.703 101.479 205.703C101.699 205.703 101.914 205.699 102.104 205.69C102.293 205.686 102.463 205.678 102.591 205.678C102.86 205.678 102.967 205.706 102.765 205.806C99.9879 207.393 96.8139 208.577 93.6369 208.577C93.5659 208.602 93.4959 208.615 93.4299 208.615C92.9469 208.615 92.5999 208.003 92.2479 207.392C91.9009 206.78 91.5499 206.167 91.0659 206.167C90.9999 206.167 90.9329 206.176 90.8639 206.199C88.8769 206.596 88.0869 208.575 86.8929 210.167C85.3049 211.753 80.1439 213.34 81.7319 215.327C82.5289 216.521 86.0949 215.732 85.3049 216.521C84.1159 216.921 82.9289 217.32 82.1329 218.108C80.1439 220.095 79.7549 222.868 78.1599 224.456C78.0399 224.518 77.8999 224.543 77.7529 224.543C77.4589 224.543 77.1189 224.451 76.7729 224.36C76.4219 224.269 76.0659 224.178 75.7449 224.178C75.4599 224.178 75.1939 224.247 74.9889 224.454C71.8099 225.643 69.4349 227.626 66.2609 229.214C65.0719 229.613 61.0949 229.214 62.2899 229.613C62.5169 229.725 62.9459 229.775 63.5169 229.775C66.9339 229.775 75.3919 228.027 75.3919 228.027C75.7889 228.423 74.9959 229.214 75.3919 230.01C76.1859 231.208 77.3749 232.394 78.9669 232.794C79.1449 232.84 79.3259 232.859 79.5039 232.859C80.1159 232.859 80.7229 232.629 81.2969 232.397C81.8749 232.166 82.4199 231.934 82.9119 231.934C83.0579 231.934 83.1929 231.951 83.3259 231.996C84.1469 232.269 82.9079 233.299 82.3139 234.033C76.5529 233.228 71.5939 232.388 71.4209 232.388C69.8339 232.788 69.8339 235.164 68.2469 235.962C67.4169 236.316 66.4089 236.388 65.3719 236.388C65.0229 236.388 64.6729 236.378 64.3209 236.371C63.9689 236.363 63.6229 236.354 63.2839 236.354C61.5979 236.354 60.1109 236.556 59.5149 237.945C58.0689 240.834 65.5109 247.68 64.4529 247.68C64.3489 247.68 64.1629 247.613 63.8829 247.473C60.7059 245.877 58.3239 242.307 54.7549 242.307C53.3639 242.109 51.2789 241.907 49.2949 241.907C47.3119 241.907 45.4259 242.105 44.4369 242.705C43.6419 243.101 44.4369 244.688 43.6419 245.081C43.5679 245.118 43.4769 245.135 43.3729 245.135C42.9599 245.135 42.3419 244.874 41.7779 244.618C41.2159 244.358 40.7069 244.097 40.5089 244.097C40.4209 244.097 40.3959 244.152 40.4639 244.286C42.7689 247.365 53.9939 253.038 55.0769 253.038C55.1129 253.038 55.1389 253.03 55.1509 253.017C55.9439 252.621 54.7539 251.033 55.1509 250.245C55.4889 250.043 55.9319 249.956 56.4219 249.956C58.8179 249.956 62.4169 252.034 61.0999 253.018C59.1169 255.006 55.5469 254.605 52.7659 255.006C52.0239 255.17 51.1639 255.217 50.2569 255.217C49.7079 255.217 49.1419 255.198 48.5729 255.183C48.0069 255.165 47.4389 255.15 46.8899 255.15C44.5299 255.15 42.4809 255.456 42.0529 257.381C42.0529 258.569 44.0349 259.762 42.8479 260.555C42.7109 260.646 42.5459 260.687 42.3649 260.687C41.8249 260.687 41.1209 260.344 40.4369 259.999C39.7529 259.652 39.0899 259.311 38.6359 259.311C38.3639 259.311 38.1639 259.438 38.0829 259.761C37.6639 263.74 40.4449 269.293 44.0149 270.086C44.7479 270.086 60.0399 268.058 62.6869 268.058C62.9049 268.058 63.0379 268.075 63.0669 268.103C64.6529 270.086 57.9099 270.483 55.5259 271.277C54.7149 271.615 54.0879 271.744 53.5879 271.744C52.7349 271.744 52.2529 271.364 51.8589 270.983C51.4659 270.599 51.1589 270.219 50.6559 270.219C50.2309 270.219 49.6629 270.49 48.7809 271.277C48.3839 271.673 49.5759 272.075 49.5759 272.466C49.5759 273.26 48.7809 273.655 47.9849 273.655C42.8279 275.241 41.6339 275.638 42.0369 275.638C44.8329 275.927 47.4879 276.031 49.9109 276.031C52.8089 276.031 55.3769 275.885 57.4569 275.737C59.5389 275.593 61.1339 275.444 62.0839 275.444C62.6579 275.444 62.9969 275.5 63.0679 275.638C63.8649 276.034 65.4519 276.034 65.0589 276.837C63.4709 280.405 48.3919 284.77 49.9789 287.149C50.1659 287.336 50.8219 287.414 51.7509 287.414C54.8179 287.414 60.8479 286.566 62.6789 285.961C63.2239 285.857 63.6329 285.812 63.9269 285.812C65.3929 285.812 64.0629 286.958 62.9679 288.105C61.8809 289.251 61.0299 290.394 63.4509 290.394C63.7899 290.394 64.1899 290.37 64.6619 290.325C67.4379 289.929 69.8229 287.549 72.9999 287.151C73.0949 287.134 73.1979 287.127 73.3099 287.127C74.5759 287.127 76.7819 288.132 79.1539 289.136C81.5299 290.145 84.0659 291.148 86.0009 291.148C86.1699 291.148 86.3309 291.14 86.4879 291.126C87.6859 290.725 86.8889 288.349 87.6859 287.551C87.9009 287.477 88.1209 287.447 88.3339 287.447C89.2929 287.447 90.2059 288.095 90.8589 288.742C91.6509 289.138 91.2549 290.724 92.0439 290.724C93.6319 290.328 94.4289 287.952 95.6189 287.154C97.6019 285.966 100.38 285.966 101.568 284.378C102.362 282.395 97.9989 278.031 100.38 277.635C100.743 277.576 101.077 277.548 101.387 277.548C103.921 277.548 104.648 279.401 105.214 281.249C105.779 283.098 106.185 284.947 108.081 284.947C108.825 284.947 109.796 284.662 111.098 283.981C113.478 282.393 114.668 278.824 117.446 277.633C117.569 277.606 117.685 277.588 117.8 277.588C119.164 277.588 119.948 279.615 121.411 279.615C121.411 279.615 128.556 278.029 128.957 276.037C128.957 274.848 126.577 273.262 127.369 272.863C128.672 272.396 129.778 272.216 130.788 272.216C134.072 272.216 136.304 274.151 140.861 274.451C140.956 274.483 141.059 274.496 141.174 274.496C141.699 274.496 142.422 274.202 143.091 273.909C143.76 273.615 144.372 273.322 144.674 273.322C144.844 273.322 144.909 273.414 144.831 273.657C144.831 274.451 142.844 274.451 143.244 275.243C143.678 275.764 144.433 275.964 145.38 275.964C146.885 275.964 148.868 275.464 150.801 274.958C152.732 274.461 154.607 273.955 155.902 273.955C156.216 273.955 156.497 273.984 156.736 274.056C158.322 274.452 158.322 276.841 159.91 277.237C160.691 277.551 161.348 277.663 161.914 277.663C162.628 277.663 163.19 277.481 163.653 277.297C164.117 277.114 164.48 276.934 164.801 276.934C165.181 276.934 165.504 277.194 165.863 278.033C165.863 278.231 166.061 278.335 166.259 278.335C166.457 278.335 166.655 278.231 166.655 278.033C167.052 275.252 165.862 272.079 166.655 269.303C167.052 267.716 169.036 267.321 169.829 266.527C172.214 264.544 186.109 244.296 187.299 240.726C188.886 235.569 187.299 232.395 186.898 227.23C186.898 226.438 187.697 225.644 187.697 224.854C187.3 222.871 184.119 221.285 185.312 219.699C185.464 219.397 185.701 219.281 185.995 219.281C186.474 219.281 187.098 219.593 187.746 219.897C188.392 220.202 189.057 220.512 189.61 220.512C189.948 220.512 190.246 220.396 190.473 220.094C191.27 218.507 188.097 216.92 188.491 215.324C188.491 212.945 191.663 211.75 191.663 209.771C191.663 206.994 188.887 205.408 188.491 202.63C188.491 199.447 190.473 196.276 190.077 193.102C190.077 191.516 185.714 190.722 186.903 189.527C187.853 188.896 189.179 188.83 190.531 188.83C190.704 188.83 190.878 188.835 191.052 188.835C191.23 188.835 191.406 188.835 191.58 188.835C193.259 188.835 194.836 188.735 195.63 187.545C196.522 186.653 195.778 185.631 194.819 184.559C195.439 185.058 196.096 185.43 196.844 185.43C197.444 185.53 197.98 185.578 198.463 185.578C203.691 185.578 202.244 180.037 204.784 177.487C205.509 176.674 206.64 176.478 207.979 176.478C208.602 176.478 209.267 176.52 209.958 176.566C210.648 176.607 211.363 176.649 212.078 176.649C215.884 176.649 219.771 175.462 220.661 166.776C221.33 157.851 219.362 155.575 216.317 155.575C213.941 155.575 210.913 156.955 207.958 157.649C207.958 157.649 218.276 151.7 216.688 147.332C215.326 143.02 214.515 141.758 213.949 141.758C213.553 141.758 213.28 142.379 213.02 142.998C212.76 143.618 212.515 144.237 212.177 144.237C211.652 144.237 210.907 142.737 209.544 137.407C209.544 136.608 211.131 136.217 211.131 135.026C211.928 131.852 211.131 127.882 209.544 125.105C209.429 124.751 209.136 124.642 208.755 124.642C208.441 124.642 208.066 124.716 207.672 124.79C207.279 124.863 206.871 124.938 206.491 124.938C206.151 124.938 205.837 124.879 205.577 124.708C203.197 123.904 201.611 121.13 198.834 120.732C198.619 120.694 198.405 120.676 198.194 120.676C196.087 120.676 194.215 122.318 191.694 122.318C191.565 122.339 191.438 122.351 191.309 122.351C190.384 122.351 189.409 121.842 188.424 121.334C187.442 120.83 186.449 120.32 185.495 120.32C185.036 120.32 184.586 120.44 184.147 120.73C181.767 121.918 180.973 125.891 178.594 127.076C178.25 127.25 177.907 127.325 177.573 127.325C176.552 127.325 175.573 126.618 174.73 125.668L175.391 125.619C173.805 123.635 172.217 120.463 169.834 119.664C168.246 119.664 170.23 123.234 169.438 124.031C167.863 125.606 165.544 127.679 163.854 127.679C163.416 127.679 163.02 127.538 162.69 127.208C161.102 124.427 171.028 120.46 168.247 118.474C163.478 115.295 157.133 115.697 151.578 114.109C150.226 113.784 148.854 112.858 147.743 112.858Z" fill="#BDC2C4"/>
<path d="M242.692 225.42L242.622 225.444L242.595 225.42L242.602 225.452C232.826 228.609 238.731 230.217 241.107 238.518C241.503 239.316 239.124 240.898 240.314 240.898C241.503 240.898 245.293 238.518 246.483 237.724L246.47 237.678C253.834 234.15 249.759 230.996 242.726 225.527L242.692 225.42Z" fill="#BDC2C4"/>
<path d="M255.007 175.414C253.015 175.814 251.036 175.814 249.049 177C247.461 178.19 247.062 180.976 245.474 182.562C238.317 189.052 238.982 192.123 242.103 192.123C246.427 192.123 255.465 186.243 255.007 175.414Z" fill="#BDC2C4"/>
<path d="M210.9 158.262L207.934 155.244C219.702 143.685 228.168 139.121 244.415 144.355L243.118 148.379C228.735 143.741 221.85 147.497 210.9 158.262Z" fill="#DE0030"/>
<path d="M209.422 151.01C212.563 151.01 215.108 153.559 215.108 156.698C215.108 159.844 212.563 162.386 209.422 162.386C206.277 162.386 203.729 159.841 203.729 156.698C203.729 153.559 206.277 151.01 209.422 151.01Z" fill="#DE0030"/>
<path d="M282.766 231.109C285.906 231.109 288.451 233.659 288.451 236.797C288.451 239.943 285.906 242.486 282.766 242.486C279.621 242.486 277.072 239.941 277.072 236.797C277.072 233.659 279.622 231.109 282.766 231.109Z" fill="#DE0030"/>
<path d="M243.771 140.678C246.912 140.678 249.457 143.229 249.457 146.368C249.457 149.514 246.912 152.058 243.771 152.058C240.626 152.058 238.077 149.511 238.077 146.368C238.077 143.229 240.627 140.678 243.771 140.678Z" fill="#DE0030"/>
<path d="M186.856 211.217C189.997 211.217 192.542 213.768 192.542 216.906C192.542 220.051 189.997 222.594 186.856 222.594C183.711 222.594 181.163 220.049 181.163 216.906C181.163 213.768 183.712 211.217 186.856 211.217Z" fill="#DE0030"/>
<path d="M238.083 225.42C241.223 225.42 243.769 227.97 243.769 231.109C243.769 234.254 241.223 236.797 238.083 236.797C234.938 236.797 232.389 234.252 232.389 231.109C232.387 227.969 234.938 225.42 238.083 225.42Z" fill="#DE0030"/>
<path d="M237.053 233.642C226.47 227.771 206.843 221.844 186.852 221.844V217.615C209.02 217.615 228.855 224.256 239.102 229.94L237.053 233.642Z" fill="#DE0030"/>
<path d="M281.911 238.737C236.28 218.651 232.64 195.776 229.983 179.074C227.987 166.533 226.888 159.626 209.327 158.869L209.509 154.639C230.524 155.547 232.211 166.141 234.16 178.41C236.669 194.149 240.098 215.711 283.613 234.861L281.911 238.737Z" fill="#DE0030"/>
<path d="M163.89 268.405C167.031 268.405 169.576 270.954 169.576 274.094C169.576 277.24 167.031 279.783 163.89 279.783C160.745 279.783 158.197 277.238 158.197 274.094C158.197 270.954 160.746 268.405 163.89 268.405Z" fill="#DE0030"/>
<path d="M203.732 291.164C206.873 291.164 209.418 293.715 209.418 296.853C209.418 299.998 206.873 302.543 203.732 302.543C200.587 302.543 198.037 299.996 198.037 296.853C198.037 293.714 200.588 291.164 203.732 291.164Z" fill="#DE0030"/>
<path d="M202.008 298.09C195.66 289.268 175.906 278.011 163.575 276.187L164.195 272.004C177.637 273.991 198.454 285.907 205.446 295.617L202.008 298.09Z" fill="#DE0030"/>
<path d="M220.45 298.177H217.302V300.346H220.339V301.626H217.302V305.928H215.938V296.896H220.451L220.45 298.177Z" fill="#4F4F51"/>
<path d="M221.604 297.858C221.604 297.627 221.69 297.428 221.855 297.262C222.022 297.093 222.223 297.01 222.459 297.01C222.698 297.01 222.897 297.093 223.067 297.262C223.236 297.424 223.319 297.625 223.319 297.866C223.319 298.1 223.236 298.304 223.067 298.474C222.905 298.637 222.703 298.721 222.467 298.721C222.227 298.721 222.022 298.637 221.855 298.474C221.689 298.304 221.604 298.097 221.604 297.858ZM223.119 300.227V305.928H221.806V300.227H223.119Z" fill="#4F4F51"/>
<path d="M228.104 301.202L227.012 301.78C226.843 301.432 226.632 301.259 226.376 301.259C226.251 301.259 226.152 301.301 226.065 301.379C225.978 301.457 225.936 301.562 225.936 301.687C225.936 301.906 226.19 302.125 226.697 302.334C227.396 302.636 227.863 302.912 228.103 303.164C228.35 303.417 228.474 303.76 228.474 304.185C228.474 304.734 228.268 305.197 227.863 305.569C227.466 305.916 226.991 306.09 226.433 306.09C225.478 306.09 224.8 305.626 224.401 304.694L225.524 304.173C225.681 304.445 225.805 304.619 225.879 304.694C226.044 304.842 226.233 304.922 226.457 304.922C226.903 304.922 227.123 304.715 227.123 304.311C227.123 304.081 226.953 303.857 226.605 303.654C226.474 303.589 226.341 303.526 226.209 303.46C226.076 303.398 225.943 303.336 225.804 303.268C225.424 303.08 225.156 302.896 224.997 302.706C224.799 302.472 224.704 302.165 224.704 301.789C224.704 301.293 224.87 300.884 225.208 300.562C225.555 300.239 225.977 300.079 226.474 300.079C227.202 300.074 227.747 300.445 228.104 301.202Z" fill="#4F4F51"/>
<path d="M229.647 296.045H230.97V300.701C231.437 300.283 231.952 300.074 232.515 300.074C233.161 300.074 233.676 300.281 234.065 300.697C234.392 301.055 234.557 301.638 234.557 302.437V305.927H233.243V302.556C233.243 302.101 233.161 301.771 232.995 301.565C232.834 301.362 232.574 301.257 232.215 301.257C231.755 301.257 231.434 301.403 231.243 301.689C231.061 301.973 230.971 302.469 230.971 303.17V305.927H229.648L229.647 296.045Z" fill="#4F4F51"/>
<path d="M241.735 305.793C241.735 306.065 241.722 306.3 241.706 306.503C241.688 306.71 241.664 306.893 241.636 307.048C241.541 307.475 241.36 307.842 241.085 308.152C240.569 308.747 239.862 309.044 238.962 309.044C238.202 309.044 237.573 308.834 237.077 308.425C236.574 307.998 236.284 307.417 236.206 306.672H237.524C237.577 306.953 237.66 307.168 237.78 307.321C238.052 307.675 238.449 307.854 238.97 307.854C239.936 307.854 240.415 307.267 240.415 306.084V305.29C239.894 305.823 239.291 306.089 238.605 306.089C237.834 306.089 237.196 305.812 236.7 305.244C236.201 304.679 235.952 303.964 235.952 303.113C235.952 302.278 236.184 301.576 236.646 300.989C237.147 300.377 237.803 300.072 238.622 300.072C239.342 300.072 239.939 300.336 240.415 300.868V300.224H241.734L241.735 305.793ZM240.47 303.093C240.47 302.54 240.324 302.097 240.028 301.768C239.726 301.429 239.342 301.258 238.871 301.258C238.375 301.258 237.978 301.446 237.689 301.813C237.433 302.148 237.3 302.574 237.3 303.098C237.3 303.619 237.433 304.043 237.689 304.375C237.974 304.733 238.367 304.92 238.871 304.92C239.375 304.92 239.771 304.731 240.069 304.366C240.333 304.036 240.47 303.611 240.47 303.093Z" fill="#4F4F51"/>
<path d="M244.713 300.227V303.498C244.713 304.44 245.085 304.92 245.834 304.92C246.577 304.92 246.949 304.441 246.949 303.498V300.227H248.267V303.532C248.267 303.988 248.209 304.38 248.098 304.711C247.986 305.009 247.795 305.276 247.532 305.513C247.085 305.903 246.518 306.092 245.834 306.092C245.147 306.092 244.586 305.903 244.139 305.513C243.87 305.278 243.672 305.009 243.565 304.711C243.454 304.446 243.4 304.054 243.4 303.532V300.227H244.713Z" fill="#4F4F51"/>
<path d="M254.13 300.227H255.452V305.928H254.13V305.333C253.589 305.837 253.002 306.09 252.383 306.09C251.594 306.09 250.945 305.805 250.428 305.238C249.916 304.66 249.659 303.926 249.659 303.059C249.659 302.204 249.916 301.494 250.428 300.922C250.937 300.353 251.577 300.071 252.35 300.071C253.011 300.071 253.607 300.342 254.13 300.887V300.227ZM251.002 303.061C251.002 303.608 251.152 304.052 251.441 304.396C251.746 304.744 252.123 304.92 252.582 304.92C253.069 304.92 253.461 304.751 253.763 304.411C254.061 304.064 254.214 303.626 254.214 303.089C254.214 302.557 254.061 302.117 253.763 301.768C253.461 301.429 253.074 301.258 252.59 301.258C252.139 301.258 251.763 301.429 251.458 301.772C251.156 302.123 251.002 302.548 251.002 303.061Z" fill="#4F4F51"/>
<path d="M257.118 300.227H258.431V300.736C258.671 300.483 258.887 300.313 259.077 300.217C259.267 300.118 259.49 300.073 259.754 300.073C260.102 300.073 260.465 300.184 260.846 300.411L260.242 301.614C259.987 301.435 259.746 301.343 259.508 301.343C258.792 301.343 258.433 301.891 258.433 302.971V305.926H257.12V300.226L257.118 300.227Z" fill="#4F4F51"/>
<path d="M265.717 296.045H267.038V305.929H265.717V305.334C265.196 305.838 264.613 306.091 263.955 306.091C263.174 306.091 262.53 305.806 262.015 305.239C261.501 304.661 261.245 303.927 261.245 303.06C261.245 302.212 261.501 301.498 262.015 300.928C262.518 300.359 263.16 300.074 263.926 300.074C264.592 300.074 265.191 300.345 265.717 300.89V296.045ZM262.593 303.061C262.593 303.608 262.737 304.052 263.031 304.396C263.333 304.744 263.709 304.92 264.167 304.92C264.655 304.92 265.048 304.751 265.35 304.411C265.647 304.064 265.8 303.626 265.8 303.089C265.8 302.557 265.647 302.117 265.35 301.768C265.048 301.429 264.66 301.258 264.176 301.258C263.726 301.258 263.35 301.429 263.044 301.772C262.742 302.123 262.593 302.548 262.593 303.061Z" fill="#4F4F51"/>
<path d="M117.351 264.393L120.152 268.241H118.483L115.905 264.548H115.656V268.241H114.294V259.204H115.889C117.088 259.204 117.946 259.431 118.48 259.882C119.063 260.381 119.356 261.039 119.356 261.859C119.356 262.499 119.174 263.048 118.806 263.511C118.438 263.967 117.954 264.261 117.351 264.393ZM115.656 263.355H116.091C117.384 263.355 118.029 262.863 118.029 261.876C118.029 260.951 117.4 260.491 116.144 260.491H115.656V263.355Z" fill="#4F4F51"/>
<path d="M120.749 265.352C120.749 264.526 121.047 263.827 121.634 263.251C122.221 262.673 122.939 262.384 123.79 262.384C124.641 262.384 125.36 262.677 125.95 263.256C126.533 263.838 126.831 264.55 126.831 265.398C126.831 266.252 126.533 266.966 125.946 267.545C125.352 268.119 124.624 268.404 123.764 268.404C122.904 268.404 122.195 268.11 121.616 267.528C121.037 266.951 120.749 266.228 120.749 265.352ZM122.094 265.377C122.094 265.942 122.246 266.394 122.548 266.725C122.862 267.064 123.276 267.23 123.788 267.23C124.3 267.23 124.713 267.068 125.019 266.734C125.325 266.398 125.481 265.961 125.481 265.408C125.481 264.85 125.325 264.411 125.019 264.077C124.705 263.742 124.296 263.573 123.788 263.573C123.283 263.573 122.871 263.742 122.56 264.077C122.252 264.409 122.094 264.843 122.094 265.377Z" fill="#4F4F51"/>
<path d="M131.533 263.513L130.445 264.094C130.276 263.747 130.061 263.572 129.805 263.572C129.689 263.572 129.581 263.614 129.498 263.692C129.407 263.774 129.365 263.878 129.365 264.001C129.365 264.221 129.623 264.437 130.127 264.65C130.829 264.948 131.3 265.229 131.54 265.481C131.779 265.732 131.903 266.072 131.903 266.501C131.903 267.051 131.697 267.51 131.291 267.878C130.898 268.23 130.424 268.406 129.87 268.406C128.911 268.406 128.233 267.939 127.838 267.006L128.962 266.485C129.114 266.762 129.234 266.936 129.316 267.006C129.473 267.158 129.663 267.231 129.886 267.231C130.332 267.231 130.556 267.033 130.556 266.623C130.556 266.393 130.382 266.169 130.038 265.971C129.911 265.907 129.774 265.838 129.642 265.778C129.509 265.716 129.372 265.654 129.241 265.584C128.857 265.394 128.589 265.208 128.43 265.022C128.232 264.782 128.133 264.476 128.133 264.105C128.133 263.609 128.303 263.2 128.641 262.876C128.984 262.551 129.406 262.389 129.902 262.389C130.639 262.384 131.177 262.761 131.533 263.513Z" fill="#4F4F51"/>
<path d="M136.4 263.513L135.308 264.094C135.135 263.747 134.924 263.572 134.668 263.572C134.548 263.572 134.448 263.614 134.357 263.692C134.271 263.774 134.229 263.878 134.229 264.001C134.229 264.221 134.482 264.437 134.993 264.65C135.688 264.948 136.159 265.229 136.399 265.481C136.642 265.732 136.762 266.072 136.762 266.501C136.762 267.051 136.56 267.51 136.155 267.878C135.762 268.23 135.283 268.406 134.729 268.406C133.77 268.406 133.092 267.939 132.697 267.006L133.821 266.485C133.977 266.762 134.093 266.936 134.175 267.006C134.336 267.158 134.526 267.231 134.754 267.231C135.195 267.231 135.415 267.033 135.415 266.623C135.415 266.393 135.245 266.169 134.901 265.971C134.77 265.907 134.637 265.838 134.505 265.778C134.373 265.716 134.232 265.654 134.1 265.584C133.72 265.394 133.448 265.208 133.289 265.022C133.091 264.782 132.992 264.476 132.992 264.105C132.992 263.609 133.166 263.2 133.505 262.876C133.852 262.551 134.27 262.389 134.77 262.389C135.5 262.384 136.041 262.761 136.4 263.513Z" fill="#4F4F51"/>
<path d="M139.264 258.36V268.24H137.944V258.36H139.264Z" fill="#4F4F51"/>
<path d="M145.135 262.542H146.456V268.24H145.135V267.644C144.589 268.153 144.007 268.405 143.382 268.405C142.598 268.405 141.944 268.12 141.433 267.55C140.919 266.967 140.663 266.244 140.663 265.377C140.663 264.523 140.919 263.811 141.433 263.237C141.942 262.67 142.581 262.383 143.35 262.383C144.011 262.383 144.605 262.656 145.135 263.201V262.542ZM142.011 265.377C142.011 265.917 142.155 266.364 142.449 266.711C142.747 267.054 143.127 267.23 143.581 267.23C144.069 267.23 144.466 267.064 144.764 266.725C145.066 266.382 145.218 265.94 145.218 265.408C145.218 264.87 145.066 264.428 144.764 264.082C144.466 263.746 144.077 263.573 143.594 263.573C143.144 263.573 142.764 263.746 142.458 264.09C142.16 264.435 142.011 264.863 142.011 265.377Z" fill="#4F4F51"/>
<path d="M148.119 262.542H149.436V263.05C149.675 262.798 149.891 262.625 150.077 262.529C150.267 262.429 150.499 262.383 150.755 262.383C151.106 262.383 151.465 262.494 151.845 262.718L151.243 263.928C150.994 263.746 150.751 263.657 150.514 263.657C149.795 263.657 149.436 264.198 149.436 265.29V268.24H148.119V262.542Z" fill="#4F4F51"/>
<path d="M157.709 265.703H153.627C153.659 266.17 153.813 266.542 154.081 266.818C154.35 267.094 154.697 267.228 155.118 267.228C155.445 267.228 155.714 267.153 155.929 266.996C156.143 266.84 156.383 266.551 156.648 266.133L157.763 266.749C157.589 267.042 157.408 267.294 157.218 267.501C157.028 267.712 156.821 267.881 156.606 268.018C156.387 268.155 156.152 268.249 155.896 268.316C155.64 268.378 155.368 268.407 155.07 268.407C154.218 268.407 153.541 268.13 153.024 267.585C152.508 267.036 152.251 266.309 152.251 265.399C152.251 264.498 152.5 263.767 152.999 263.21C153.504 262.66 154.169 262.387 155.003 262.387C155.839 262.387 156.508 262.654 156.99 263.19C157.473 263.717 157.715 264.459 157.715 265.392L157.709 265.703ZM156.357 264.625C156.175 263.922 155.73 263.571 155.031 263.571C154.871 263.571 154.721 263.594 154.581 263.644C154.44 263.695 154.309 263.765 154.193 263.856C154.081 263.947 153.981 264.058 153.899 264.187C153.817 264.314 153.753 264.458 153.713 264.625H156.357Z" fill="#4F4F51"/>
<path d="M141.953 214.743V205.71H143.849C144.763 205.71 145.481 205.797 146.002 205.976C146.572 206.154 147.084 206.455 147.544 206.874C148.473 207.723 148.944 208.842 148.944 210.227C148.944 211.617 148.456 212.74 147.485 213.598C146.997 214.029 146.485 214.327 145.952 214.492C145.453 214.662 144.746 214.745 143.829 214.745L141.953 214.743ZM143.317 213.461H143.937C144.547 213.461 145.056 213.397 145.46 213.268C145.865 213.131 146.232 212.916 146.564 212.62C147.233 212.01 147.563 211.212 147.563 210.227C147.563 209.237 147.233 208.429 146.572 207.815C145.976 207.263 145.093 206.992 143.936 206.992H143.316L143.317 213.461Z" fill="#4F4F51"/>
<path d="M151.721 209.045V212.316C151.721 213.257 152.097 213.733 152.841 213.733C153.588 213.733 153.956 213.257 153.956 212.316V209.045H155.273V212.346C155.273 212.8 155.216 213.194 155.1 213.53C154.993 213.826 154.806 214.095 154.538 214.327C154.092 214.716 153.525 214.909 152.84 214.909C152.157 214.909 151.592 214.716 151.15 214.327C150.878 214.097 150.683 213.826 150.572 213.53C150.461 213.259 150.407 212.868 150.407 212.346V209.045H151.721Z" fill="#4F4F51"/>
<path d="M158.258 204.863V209.71C158.779 209.159 159.377 208.887 160.042 208.887C160.811 208.887 161.452 209.172 161.96 209.742C162.473 210.316 162.729 211.028 162.729 211.875C162.729 212.756 162.473 213.482 161.96 214.053C161.448 214.622 160.803 214.907 160.019 214.907C159.362 214.907 158.771 214.656 158.258 214.147V214.743H156.936V204.863H158.258ZM161.385 211.937C161.385 211.386 161.238 210.946 160.94 210.602C160.638 210.25 160.262 210.074 159.812 210.074C159.325 210.074 158.936 210.248 158.629 210.582C158.323 210.921 158.18 211.354 158.18 211.896C158.18 212.45 158.324 212.89 158.621 213.227C158.919 213.561 159.307 213.734 159.795 213.734C160.249 213.734 160.629 213.561 160.927 213.227C161.233 212.878 161.385 212.453 161.385 211.937Z" fill="#4F4F51"/>
<path d="M165.44 204.863V214.743H164.127V204.863H165.44Z" fill="#4F4F51"/>
<path d="M166.906 206.671C166.906 206.444 166.993 206.242 167.159 206.077C167.324 205.908 167.527 205.824 167.762 205.824C168.002 205.824 168.201 205.908 168.37 206.077C168.539 206.242 168.621 206.44 168.621 206.679C168.621 206.915 168.539 207.118 168.37 207.287C168.209 207.456 168.007 207.539 167.77 207.539C167.531 207.539 167.324 207.456 167.159 207.287C166.993 207.119 166.906 206.916 166.906 206.671ZM168.423 209.045V214.743H167.106V209.045H168.423Z" fill="#4F4F51"/>
<path d="M170.092 209.045H171.414V209.573C171.877 209.115 172.39 208.885 172.969 208.885C173.634 208.885 174.15 209.096 174.522 209.515C174.84 209.869 175.001 210.449 175.001 211.248V214.741H173.679V211.562C173.679 211 173.601 210.612 173.449 210.397C173.292 210.183 173.019 210.071 172.614 210.071C172.18 210.071 171.87 210.218 171.684 210.505C171.506 210.786 171.415 211.29 171.415 211.997V214.741H170.093L170.092 209.045Z" fill="#4F4F51"/>
<path d="M163.853 159.915V150.877H165.209C165.816 150.877 166.3 150.924 166.655 151.018C167.018 151.115 167.324 151.27 167.572 151.491C167.829 151.721 168.027 152.009 168.176 152.354C168.328 152.701 168.407 153.053 168.407 153.408C168.407 154.055 168.159 154.606 167.663 155.054C168.142 155.214 168.522 155.503 168.795 155.913C169.077 156.315 169.217 156.792 169.217 157.326C169.217 158.035 168.97 158.631 168.469 159.119C168.167 159.416 167.829 159.632 167.457 159.746C167.048 159.858 166.53 159.917 165.92 159.917L163.853 159.915ZM165.216 154.758H165.643C166.15 154.758 166.522 154.647 166.758 154.417C166.992 154.195 167.109 153.868 167.109 153.428C167.109 153 166.989 152.678 166.75 152.459C166.506 152.24 166.154 152.133 165.696 152.133H165.217L165.216 154.758ZM165.216 158.629H166.059C166.671 158.629 167.125 158.514 167.414 158.27C167.721 158.006 167.868 157.676 167.868 157.274C167.868 156.885 167.728 156.555 167.43 156.293C167.15 156.031 166.637 155.904 165.902 155.904H165.215L165.216 158.629Z" fill="#4F4F51"/>
<path d="M175.878 157.373H171.795C171.829 157.84 171.985 158.217 172.249 158.489C172.522 158.765 172.866 158.901 173.286 158.901C173.613 158.901 173.886 158.823 174.097 158.671C174.308 158.514 174.547 158.225 174.82 157.803L175.932 158.418C175.762 158.717 175.58 158.965 175.386 159.174C175.196 159.381 174.989 159.551 174.771 159.688C174.556 159.824 174.316 159.922 174.064 159.986C173.812 160.048 173.536 160.077 173.243 160.077C172.391 160.077 171.705 159.806 171.192 159.259C170.676 158.709 170.42 157.98 170.42 157.07C170.42 156.171 170.673 155.443 171.169 154.884C171.672 154.329 172.342 154.062 173.169 154.062C174.007 154.062 174.673 154.327 175.16 154.861C175.648 155.388 175.887 156.129 175.887 157.066L175.878 157.373ZM174.526 156.295C174.339 155.598 173.903 155.245 173.2 155.245C173.035 155.245 172.887 155.266 172.746 155.314C172.604 155.364 172.481 155.435 172.365 155.526C172.249 155.617 172.15 155.726 172.067 155.86C171.985 155.984 171.923 156.132 171.881 156.295H174.526Z" fill="#4F4F51"/>
<path d="M178.633 150.03V159.915H177.315V150.03H178.633Z" fill="#4F4F51"/>
<path d="M181.667 155.442V159.915H180.341V155.442H179.874V154.211H180.341V152.014C180.341 151.295 180.466 150.786 180.717 150.491C181.061 150.078 181.556 149.875 182.218 149.875C182.448 149.875 182.746 149.94 183.102 150.078V151.425L182.961 151.355C182.681 151.21 182.444 151.136 182.259 151.136C182.028 151.136 181.87 151.224 181.787 151.392C181.705 151.554 181.667 151.869 181.667 152.334V154.213H183.102V155.444L181.667 155.442Z" fill="#4F4F51"/>
<path d="M188.24 154.211H189.562V159.915H188.24V159.319C187.695 159.822 187.117 160.075 186.489 160.075C185.704 160.075 185.051 159.79 184.538 159.221C184.026 158.643 183.769 157.919 183.769 157.047C183.769 156.193 184.026 155.481 184.538 154.906C185.051 154.34 185.687 154.058 186.456 154.058C187.117 154.058 187.712 154.327 188.24 154.87V154.211ZM185.117 157.046C185.117 157.592 185.263 158.032 185.555 158.381C185.857 158.729 186.233 158.902 186.693 158.902C187.179 158.902 187.572 158.737 187.87 158.397C188.176 158.051 188.324 157.608 188.324 157.076C188.324 156.544 188.176 156.1 187.87 155.75C187.572 155.416 187.183 155.246 186.701 155.246C186.25 155.246 185.874 155.416 185.568 155.759C185.266 156.105 185.117 156.534 185.117 157.046Z" fill="#4F4F51"/>
<path d="M194.538 155.186L193.448 155.766C193.277 155.418 193.067 155.245 192.81 155.245C192.691 155.245 192.587 155.286 192.501 155.36C192.412 155.442 192.372 155.546 192.372 155.67C192.372 155.89 192.624 156.107 193.133 156.319C193.831 156.616 194.302 156.897 194.541 157.149C194.786 157.402 194.908 157.74 194.908 158.17C194.908 158.719 194.702 159.182 194.298 159.549C193.902 159.903 193.43 160.074 192.868 160.074C191.914 160.074 191.24 159.607 190.835 158.674L191.963 158.157C192.116 158.429 192.239 158.601 192.317 158.674C192.479 158.826 192.67 158.901 192.891 158.901C193.338 158.901 193.557 158.7 193.557 158.292C193.557 158.06 193.387 157.836 193.04 157.642C192.912 157.574 192.776 157.511 192.644 157.445C192.511 157.383 192.38 157.322 192.239 157.251C191.859 157.064 191.594 156.875 191.434 156.689C191.24 156.454 191.14 156.148 191.14 155.771C191.14 155.275 191.305 154.868 191.645 154.544C191.992 154.222 192.412 154.06 192.909 154.06C193.641 154.059 194.182 154.43 194.538 155.186Z" fill="#4F4F51"/>
<path d="M197.447 155.442V159.915H196.128V155.442H195.566V154.211H196.128V152.125H197.447V154.211H198.471V155.442H197.447Z" fill="#4F4F51"/>
<path d="M208.45 245.062H212.346V241.53H213.71V250.563H212.346V246.343H208.45V250.563H207.087V241.53H208.45V245.062Z" fill="#4F4F51"/>
<path d="M215.356 247.674C215.356 246.848 215.652 246.151 216.239 245.57C216.826 244.992 217.546 244.707 218.397 244.707C219.244 244.707 219.966 244.996 220.553 245.579C221.14 246.157 221.438 246.872 221.438 247.715C221.438 248.575 221.14 249.29 220.553 249.864C219.957 250.442 219.231 250.727 218.371 250.727C217.511 250.727 216.8 250.434 216.222 249.846C215.646 249.27 215.356 248.546 215.356 247.674ZM216.702 247.696C216.702 248.26 216.851 248.716 217.157 249.048C217.47 249.386 217.884 249.551 218.397 249.551C218.908 249.551 219.318 249.386 219.627 249.055C219.937 248.721 220.09 248.28 220.09 247.725C220.09 247.171 219.937 246.73 219.627 246.395C219.313 246.065 218.903 245.896 218.397 245.896C217.888 245.896 217.478 246.065 217.172 246.395C216.859 246.733 216.702 247.166 216.702 247.696Z" fill="#4F4F51"/>
<path d="M224.148 240.682V250.564H222.826V240.682H224.148Z" fill="#4F4F51"/>
<path d="M227.711 249.505L225.153 244.863H226.677L228.42 248.135L230.048 244.863H231.536L226.994 253.665H225.486L227.711 249.505Z" fill="#4F4F51"/>
<path d="M232.428 240.682H233.75V245.336C234.214 244.914 234.733 244.707 235.296 244.707C235.94 244.707 236.453 244.914 236.841 245.332C237.171 245.695 237.338 246.273 237.338 247.07V250.562H236.02V247.194C236.02 246.736 235.94 246.405 235.776 246.198C235.615 245.997 235.355 245.893 234.995 245.893C234.536 245.893 234.211 246.037 234.024 246.322C233.841 246.607 233.751 247.103 233.751 247.805V250.562H232.429L232.428 240.682Z" fill="#4F4F51"/>
<path d="M244.189 248.021H240.111C240.138 248.488 240.297 248.864 240.565 249.137C240.834 249.413 241.18 249.549 241.602 249.549C241.929 249.549 242.197 249.471 242.411 249.32C242.622 249.162 242.867 248.873 243.131 248.452L244.246 249.067C244.073 249.364 243.892 249.617 243.701 249.823C243.512 250.034 243.305 250.199 243.085 250.34C242.867 250.473 242.635 250.572 242.38 250.634C242.122 250.696 241.85 250.73 241.552 250.73C240.701 250.73 240.021 250.458 239.503 249.909C238.99 249.358 238.734 248.627 238.734 247.718C238.734 246.819 238.981 246.091 239.482 245.531C239.982 244.982 240.652 244.71 241.486 244.71C242.32 244.71 242.981 244.98 243.469 245.508C243.956 246.04 244.197 246.777 244.197 247.715L244.189 248.021ZM242.841 246.944C242.659 246.245 242.214 245.894 241.511 245.894C241.354 245.894 241.2 245.914 241.065 245.967C240.919 246.013 240.792 246.083 240.676 246.174C240.565 246.266 240.465 246.376 240.383 246.508C240.3 246.632 240.237 246.78 240.197 246.944H242.841Z" fill="#4F4F51"/>
<path d="M249.834 244.864H251.156V250.563H249.834V249.967C249.292 250.477 248.709 250.728 248.086 250.728C247.296 250.728 246.648 250.443 246.131 249.873C245.619 249.295 245.361 248.568 245.361 247.696C245.361 246.843 245.619 246.129 246.131 245.553C246.644 244.989 247.279 244.706 248.052 244.706C248.713 244.706 249.309 244.976 249.834 245.525V244.864ZM246.709 247.696C246.709 248.241 246.858 248.681 247.147 249.03C247.45 249.377 247.825 249.551 248.284 249.551C248.771 249.551 249.165 249.386 249.465 249.048C249.767 248.699 249.916 248.262 249.916 247.725C249.916 247.193 249.767 246.75 249.465 246.403C249.165 246.069 248.777 245.896 248.297 245.896C247.841 245.896 247.465 246.069 247.165 246.408C246.858 246.754 246.709 247.188 246.709 247.696Z" fill="#4F4F51"/>
<path d="M257.023 240.682H258.344V250.564H257.023V249.968C256.502 250.478 255.916 250.729 255.261 250.729C254.478 250.729 253.833 250.444 253.321 249.874C252.807 249.296 252.551 248.569 252.551 247.697C252.551 246.844 252.807 246.137 253.321 245.564C253.825 244.994 254.461 244.709 255.229 244.709C255.899 244.709 256.495 244.979 257.023 245.528V240.682ZM253.896 247.696C253.896 248.241 254.044 248.681 254.334 249.03C254.636 249.377 255.016 249.551 255.47 249.551C255.958 249.551 256.355 249.386 256.653 249.048C256.955 248.699 257.107 248.262 257.107 247.725C257.107 247.193 256.955 246.75 256.653 246.403C256.355 246.069 255.966 245.896 255.483 245.896C255.033 245.896 254.653 246.069 254.347 246.408C254.048 246.754 253.896 247.188 253.896 247.696Z" fill="#4F4F51"/>
<path d="M258.293 136.697V138.31C257.504 137.65 256.688 137.32 255.844 137.32C254.914 137.32 254.131 137.654 253.494 138.322C252.853 138.986 252.533 139.799 252.533 140.76C252.533 141.709 252.853 142.51 253.494 143.162C254.135 143.814 254.92 144.141 255.849 144.141C256.329 144.141 256.738 144.063 257.074 143.907C257.262 143.829 257.456 143.723 257.657 143.591C257.858 143.459 258.07 143.298 258.293 143.111V144.761C257.512 145.204 256.691 145.425 255.832 145.425C254.539 145.425 253.436 144.974 252.521 144.071C251.611 143.161 251.156 142.063 251.156 140.778C251.156 139.626 251.537 138.598 252.299 137.696C253.237 136.591 254.449 136.038 255.938 136.038C256.75 136.037 257.535 136.258 258.293 136.697Z" fill="#4F4F51"/>
<path d="M263.971 139.553H265.295V145.26H263.971V144.662C263.428 145.17 262.844 145.424 262.219 145.424C261.43 145.424 260.778 145.139 260.262 144.569C259.75 143.987 259.494 143.26 259.494 142.389C259.494 141.534 259.75 140.821 260.262 140.25C260.774 139.679 261.414 139.395 262.184 139.395C262.848 139.395 263.444 139.668 263.971 140.215V139.553ZM260.842 142.389C260.842 142.936 260.988 143.381 261.281 143.725C261.582 144.073 261.961 144.246 262.418 144.246C262.906 144.246 263.301 144.078 263.602 143.742C263.903 143.394 264.053 142.953 264.053 142.418C264.053 141.883 263.903 141.441 263.602 141.094C263.301 140.754 262.911 140.584 262.43 140.584C261.977 140.584 261.598 140.756 261.293 141.1C260.992 141.447 260.842 141.877 260.842 142.389Z" fill="#4F4F51"/>
<path d="M266.76 137.18C266.76 136.95 266.844 136.75 267.012 136.582C267.18 136.414 267.381 136.33 267.616 136.33C267.854 136.33 268.057 136.414 268.225 136.582C268.393 136.746 268.477 136.947 268.477 137.186C268.477 137.425 268.393 137.627 268.225 137.795C268.061 137.963 267.86 138.047 267.621 138.047C267.382 138.047 267.18 137.963 267.012 137.795C266.844 137.627 266.76 137.422 266.76 137.18ZM268.277 139.553V145.26H266.959V139.553H268.277Z" fill="#4F4F51"/>
<path d="M269.947 139.553H271.265V140.063C271.507 139.809 271.722 139.635 271.91 139.542C272.101 139.444 272.328 139.396 272.59 139.396C272.938 139.396 273.301 139.509 273.68 139.736L273.076 140.943C272.826 140.763 272.582 140.673 272.344 140.673C271.625 140.673 271.266 141.216 271.266 142.302V145.261H269.948V139.553H269.947Z" fill="#4F4F51"/>
<path d="M274.617 139.553H275.941V140.08C276.402 139.623 276.921 139.394 277.5 139.394C278.164 139.394 278.682 139.603 279.053 140.021C279.373 140.376 279.533 140.957 279.533 141.761V145.259H278.209V142.075C278.209 141.514 278.131 141.126 277.975 140.911C277.823 140.692 277.545 140.583 277.143 140.583C276.705 140.583 276.395 140.728 276.211 141.017C276.031 141.302 275.941 141.799 275.941 142.509V145.259H274.617V139.553Z" fill="#4F4F51"/>
<path d="M281.197 139.553H282.515V140.063C282.757 139.809 282.972 139.635 283.16 139.542C283.351 139.444 283.578 139.396 283.84 139.396C284.188 139.396 284.551 139.509 284.93 139.736L284.326 140.943C284.076 140.763 283.832 140.673 283.594 140.673C282.875 140.673 282.516 141.216 282.516 142.302V145.261H281.198V139.553H281.197Z" fill="#4F4F51"/>
<path d="M288.012 144.199L285.446 139.553H286.975L288.721 142.834L290.35 139.553H291.838L287.291 148.365H285.785L288.012 144.199Z" fill="#4F4F51"/>
<path d="M296.736 139.553H298.06V145.26H296.736V144.662C296.193 145.17 295.609 145.424 294.984 145.424C294.195 145.424 293.543 145.139 293.027 144.569C292.515 143.987 292.259 143.26 292.259 142.389C292.259 141.534 292.515 140.821 293.027 140.25C293.539 139.679 294.179 139.395 294.949 139.395C295.613 139.395 296.209 139.668 296.736 140.215V139.553ZM293.607 142.389C293.607 142.936 293.753 143.381 294.046 143.725C294.347 144.073 294.726 144.246 295.183 144.246C295.671 144.246 296.066 144.078 296.367 143.742C296.668 143.394 296.818 142.953 296.818 142.418C296.818 141.883 296.668 141.441 296.367 141.094C296.066 140.754 295.676 140.584 295.195 140.584C294.742 140.584 294.363 140.756 294.058 141.1C293.758 141.447 293.607 141.877 293.607 142.389Z" fill="#4F4F51"/>
<path d="M299.725 139.553H301.049V140.08C301.51 139.623 302.029 139.394 302.608 139.394C303.272 139.394 303.79 139.603 304.161 140.021C304.481 140.376 304.641 140.957 304.641 141.761V145.259H303.317V142.075C303.317 141.514 303.239 141.126 303.083 140.911C302.931 140.692 302.653 140.583 302.251 140.583C301.813 140.583 301.503 140.728 301.319 141.017C301.139 141.302 301.049 141.799 301.049 142.509V145.259H299.725V139.553Z" fill="#4F4F51"/>
<path d="M347.339 234.279V245H345.911V234.279H347.339Z" fill="#4F4F51"/>
<path d="M337.799 241.864C337.799 240.971 338.118 240.212 338.757 239.585C339.396 238.959 340.175 238.646 341.093 238.646C342.016 238.646 342.799 238.961 343.442 239.592C344.077 240.222 344.394 240.997 344.394 241.915C344.394 242.842 344.075 243.618 343.436 244.245C342.792 244.867 342.003 245.178 341.068 245.178C340.141 245.178 339.365 244.86 338.738 244.226C338.112 243.599 337.799 242.812 337.799 241.864ZM339.259 241.89C339.259 242.507 339.424 242.996 339.754 243.356C340.092 243.72 340.539 243.902 341.093 243.902C341.652 243.902 342.098 243.722 342.433 243.362C342.767 243.003 342.934 242.522 342.934 241.921C342.934 241.32 342.767 240.84 342.433 240.48C342.094 240.117 341.648 239.935 341.093 239.935C340.547 239.935 340.105 240.117 339.767 240.48C339.428 240.844 339.259 241.314 339.259 241.89Z" fill="#4F4F51"/>
<path d="M329.979 241.864C329.979 240.971 330.298 240.212 330.937 239.585C331.576 238.959 332.355 238.646 333.273 238.646C334.195 238.646 334.978 238.961 335.622 239.592C336.256 240.222 336.574 240.997 336.574 241.915C336.574 242.842 336.254 243.618 335.615 244.245C334.972 244.867 334.183 245.178 333.248 245.178C332.321 245.178 331.544 244.86 330.918 244.226C330.292 243.599 329.979 242.812 329.979 241.864ZM331.438 241.89C331.438 242.507 331.604 242.996 331.934 243.356C332.272 243.72 332.719 243.902 333.273 243.902C333.832 243.902 334.278 243.722 334.612 243.362C334.947 243.003 335.114 242.522 335.114 241.921C335.114 241.32 334.947 240.84 334.612 240.48C334.274 240.117 333.827 239.935 333.273 239.935C332.727 239.935 332.285 240.117 331.946 240.48C331.608 240.844 331.438 241.314 331.438 241.89Z" fill="#4F4F51"/>
<path d="M323.904 248.364H322.476V238.817H323.904V239.49C324.467 238.927 325.106 238.646 325.821 238.646C326.671 238.646 327.372 238.959 327.922 239.585C328.48 240.208 328.76 240.993 328.76 241.94C328.76 242.867 328.483 243.639 327.928 244.257C327.378 244.871 326.684 245.178 325.846 245.178C325.123 245.178 324.475 244.888 323.904 244.308V248.364ZM327.3 241.947C327.3 241.354 327.139 240.872 326.817 240.5C326.492 240.123 326.081 239.935 325.586 239.935C325.061 239.935 324.636 240.117 324.31 240.48C323.984 240.844 323.821 241.323 323.821 241.915C323.821 242.495 323.984 242.973 324.31 243.35C324.632 243.718 325.055 243.902 325.58 243.902C326.075 243.902 326.483 243.716 326.805 243.343C327.135 242.971 327.3 242.505 327.3 241.947Z" fill="#4F4F51"/>
<path d="M317.41 238.817H318.838V239.37C319.101 239.095 319.333 238.906 319.537 238.805C319.744 238.699 319.989 238.646 320.273 238.646C320.65 238.646 321.043 238.769 321.454 239.014L320.8 240.322C320.529 240.127 320.264 240.03 320.006 240.03C319.228 240.03 318.838 240.618 318.838 241.794V245H317.41V238.817Z" fill="#4F4F51"/>
<path d="M315.842 242.245H311.412C311.45 242.753 311.615 243.157 311.907 243.458C312.199 243.754 312.573 243.902 313.03 243.902C313.386 243.902 313.68 243.817 313.913 243.648C314.141 243.479 314.401 243.166 314.693 242.708L315.899 243.381C315.713 243.699 315.516 243.972 315.309 244.2C315.102 244.424 314.88 244.611 314.643 244.759C314.406 244.903 314.15 245.008 313.875 245.076C313.599 245.144 313.301 245.178 312.979 245.178C312.057 245.178 311.316 244.882 310.758 244.289C310.199 243.692 309.92 242.901 309.92 241.915C309.92 240.938 310.191 240.146 310.732 239.541C311.278 238.944 312.002 238.646 312.903 238.646C313.813 238.646 314.533 238.936 315.062 239.516C315.586 240.091 315.849 240.889 315.849 241.909L315.842 242.245ZM314.376 241.077C314.177 240.315 313.697 239.935 312.935 239.935C312.762 239.935 312.599 239.962 312.446 240.017C312.294 240.068 312.154 240.144 312.027 240.246C311.905 240.343 311.799 240.461 311.71 240.601C311.621 240.741 311.553 240.899 311.507 241.077H314.376Z" fill="#4F4F51"/>
<path d="M304.67 238.817L306.27 242.29L307.863 238.817H309.469L306.257 245.425L303.071 238.817H304.67Z" fill="#4F4F51"/>
<path d="M302.093 238.817V245H300.665V238.817H302.093ZM300.449 236.247C300.449 235.997 300.54 235.781 300.722 235.599C300.904 235.417 301.122 235.326 301.376 235.326C301.634 235.326 301.854 235.417 302.036 235.599C302.218 235.777 302.309 235.995 302.309 236.253C302.309 236.511 302.218 236.731 302.036 236.913C301.858 237.095 301.64 237.186 301.382 237.186C301.124 237.186 300.904 237.095 300.722 236.913C300.54 236.731 300.449 236.509 300.449 236.247Z" fill="#4F4F51"/>
<path d="M296.653 235.199V243.61H299.535V245H295.174V235.199H296.653Z" fill="#4F4F51"/>
</g>
<defs>
<clipPath id="clip0_2017_911">
<rect width="455" height="418" fill="white"/>
</clipPath>
</defs>
</svg>
