<svg width="94" height="34" viewBox="0 0 94 34" fill="none" xmlns="http://www.w3.org/2000/svg">
<rect x="1" y="1" width="92" height="32" rx="7" fill="url(#paint0_linear_23_1284)"/>
<rect x="1" y="1" width="92" height="32" rx="7" stroke="#A1A1A1" stroke-width="2"/>
<path d="M9.19886 22.5V10.8636H16.9034V12.892H11.6591V15.6648H16.392V17.6932H11.6591V22.5H9.19886ZM21.0185 10.8636V22.5H18.5582V10.8636H21.0185ZM23.0426 22.5V10.8636H27.6335C28.5161 10.8636 29.268 11.0322 29.8892 11.3693C30.5104 11.7027 30.9839 12.1667 31.3097 12.7614C31.6392 13.3523 31.804 14.0341 31.804 14.8068C31.804 15.5795 31.6373 16.2614 31.304 16.8523C30.9706 17.4432 30.4877 17.9034 29.8551 18.233C29.2263 18.5625 28.465 18.7273 27.571 18.7273H24.6449V16.7557H27.1733C27.6468 16.7557 28.0369 16.6742 28.3438 16.5114C28.6544 16.3447 28.8854 16.1155 29.0369 15.8239C29.1922 15.5284 29.2699 15.1894 29.2699 14.8068C29.2699 14.4205 29.1922 14.0833 29.0369 13.7955C28.8854 13.5038 28.6544 13.2784 28.3438 13.1193C28.0331 12.9564 27.6392 12.875 27.1619 12.875H25.5028V22.5H23.0426ZM38.4972 15.7216V17.642H33.1903V15.7216H38.4972ZM48.321 14.625C48.2415 14.3485 48.1297 14.1042 47.9858 13.892C47.8419 13.6761 47.6657 13.4943 47.4574 13.3466C47.2528 13.1951 47.018 13.0795 46.7528 13C46.4915 12.9205 46.2017 12.8807 45.8835 12.8807C45.2888 12.8807 44.7661 13.0284 44.3153 13.3239C43.8684 13.6193 43.5199 14.0492 43.2699 14.6136C43.0199 15.1742 42.8949 15.8598 42.8949 16.6705C42.8949 17.4811 43.018 18.1705 43.2642 18.7386C43.5104 19.3068 43.8589 19.7405 44.3097 20.0398C44.7604 20.3352 45.2926 20.483 45.9062 20.483C46.4631 20.483 46.9384 20.3845 47.3324 20.1875C47.7301 19.9867 48.0331 19.7045 48.2415 19.3409C48.4536 18.9773 48.5597 18.5473 48.5597 18.0511L49.0597 18.125H46.0597V16.2727H50.929V17.7386C50.929 18.7614 50.7131 19.6402 50.2812 20.375C49.8494 21.1061 49.2547 21.6705 48.4972 22.0682C47.7396 22.4621 46.8722 22.6591 45.8949 22.6591C44.804 22.6591 43.8456 22.4186 43.0199 21.9375C42.1941 21.4527 41.5502 20.7652 41.0881 19.875C40.6297 18.9811 40.4006 17.9205 40.4006 16.6932C40.4006 15.75 40.5369 14.9091 40.8097 14.1705C41.0862 13.428 41.4725 12.7992 41.9688 12.2841C42.465 11.7689 43.0426 11.3769 43.7017 11.108C44.3608 10.839 45.0748 10.7045 45.8438 10.7045C46.5028 10.7045 47.1165 10.8011 47.6847 10.9943C48.2528 11.1837 48.7566 11.4527 49.196 11.8011C49.6392 12.1496 50.0009 12.5644 50.2812 13.0455C50.5616 13.5227 50.7415 14.0492 50.821 14.625H48.321ZM58.3281 18.7841V13.7727H60.7486V22.5H58.4247V20.9148H58.3338C58.1368 21.4261 57.8092 21.8371 57.3509 22.1477C56.8963 22.4583 56.3414 22.6136 55.6861 22.6136C55.1027 22.6136 54.5895 22.4811 54.1463 22.2159C53.7031 21.9508 53.3565 21.5739 53.1065 21.0852C52.8603 20.5966 52.7353 20.0114 52.7315 19.3295V13.7727H55.152V18.8977C55.1558 19.4129 55.294 19.8201 55.5668 20.1193C55.8395 20.4186 56.205 20.5682 56.6634 20.5682C56.955 20.5682 57.2277 20.5019 57.4815 20.3693C57.7353 20.233 57.9399 20.0322 58.0952 19.767C58.2543 19.5019 58.3319 19.1742 58.3281 18.7841ZM62.6847 22.5V13.7727H65.1051V22.5H62.6847ZM63.9006 12.6477C63.5407 12.6477 63.232 12.5284 62.9744 12.2898C62.7206 12.0473 62.5938 11.7576 62.5938 11.4205C62.5938 11.0871 62.7206 10.8011 62.9744 10.5625C63.232 10.3201 63.5407 10.1989 63.9006 10.1989C64.2604 10.1989 64.5672 10.3201 64.821 10.5625C65.0786 10.8011 65.2074 11.0871 65.2074 11.4205C65.2074 11.7576 65.0786 12.0473 64.821 12.2898C64.5672 12.5284 64.2604 12.6477 63.9006 12.6477ZM70.2599 22.642C69.5971 22.642 68.9967 22.4716 68.4588 22.1307C67.9247 21.786 67.5005 21.2803 67.1861 20.6136C66.8755 19.9432 66.7202 19.1212 66.7202 18.1477C66.7202 17.1477 66.8812 16.3163 67.2031 15.6534C67.5251 14.9867 67.9531 14.4886 68.4872 14.1591C69.0251 13.8258 69.6141 13.6591 70.2543 13.6591C70.7429 13.6591 71.1501 13.7424 71.4759 13.9091C71.8054 14.072 72.0705 14.2765 72.2713 14.5227C72.4759 14.7652 72.6312 15.0038 72.7372 15.2386H72.8111V10.8636H75.2259V22.5H72.8395V21.1023H72.7372C72.6236 21.3447 72.4626 21.5852 72.2543 21.8239C72.0497 22.0587 71.7827 22.2538 71.4531 22.4091C71.1274 22.5644 70.7296 22.642 70.2599 22.642ZM71.027 20.7159C71.4171 20.7159 71.7467 20.6098 72.0156 20.3977C72.2884 20.1818 72.4967 19.8807 72.6406 19.4943C72.7884 19.108 72.8622 18.6553 72.8622 18.1364C72.8622 17.6174 72.7902 17.1667 72.6463 16.7841C72.5024 16.4015 72.294 16.1061 72.0213 15.8977C71.7486 15.6894 71.4171 15.5852 71.027 15.5852C70.6293 15.5852 70.294 15.6932 70.0213 15.9091C69.7486 16.125 69.5421 16.4242 69.402 16.8068C69.2618 17.1894 69.1918 17.6326 69.1918 18.1364C69.1918 18.6439 69.2618 19.0928 69.402 19.483C69.5459 19.8693 69.7524 20.1723 70.0213 20.392C70.294 20.608 70.6293 20.7159 71.027 20.7159ZM81.1932 22.6705C80.2955 22.6705 79.5227 22.4886 78.875 22.125C78.2311 21.7576 77.7348 21.2386 77.3864 20.5682C77.0379 19.8939 76.8636 19.0966 76.8636 18.1761C76.8636 17.2784 77.0379 16.4905 77.3864 15.8125C77.7348 15.1345 78.2254 14.6061 78.858 14.2273C79.4943 13.8485 80.2405 13.6591 81.0966 13.6591C81.6723 13.6591 82.2083 13.7519 82.7045 13.9375C83.2045 14.1193 83.6402 14.3939 84.0114 14.7614C84.3864 15.1288 84.678 15.5909 84.8864 16.1477C85.0947 16.7008 85.1989 17.3485 85.1989 18.0909V18.7557H77.8295V17.2557H82.9205C82.9205 16.9072 82.8447 16.5985 82.6932 16.3295C82.5417 16.0606 82.3314 15.8504 82.0625 15.6989C81.7973 15.5436 81.4886 15.4659 81.1364 15.4659C80.7689 15.4659 80.4432 15.5511 80.1591 15.7216C79.8788 15.8883 79.6591 16.1136 79.5 16.3977C79.3409 16.678 79.2595 16.9905 79.2557 17.3352V18.7614C79.2557 19.1932 79.3352 19.5663 79.4943 19.8807C79.6572 20.1951 79.8864 20.4375 80.1818 20.608C80.4773 20.7784 80.8277 20.8636 81.233 20.8636C81.5019 20.8636 81.7481 20.8258 81.9716 20.75C82.1951 20.6742 82.3864 20.5606 82.5455 20.4091C82.7045 20.2576 82.8258 20.072 82.9091 19.8523L85.1477 20C85.0341 20.5379 84.8011 21.0076 84.4489 21.4091C84.1004 21.8068 83.6496 22.1174 83.0966 22.3409C82.5473 22.5606 81.9129 22.6705 81.1932 22.6705Z" fill="black"/>
<defs>
<linearGradient id="paint0_linear_23_1284" x1="107" y1="-3.88571" x2="79.1184" y2="85.8828" gradientUnits="userSpaceOnUse">
<stop stop-color="#B5E9FF"/>
<stop offset="1" stop-color="#FFBEBE"/>
</linearGradient>
</defs>
</svg>
