<svg width="37" height="24" viewBox="0 0 37 24" fill="none" xmlns="http://www.w3.org/2000/svg">
    <g style="fill: var(--link-default, #D54716);" id="ticket" fill="var(--link-default)" fill-rule="nonzero">
        <path d="M32.2927 4C32.6833 4 33 4.32561 33 4.72727V9.45455C31.4374 9.45455 30.1707 10.757 30.1707 12.3636C30.1707 13.9703 31.4374 15.2727 33 15.2727V19.2727C33 19.6744 32.6833 20 32.2927 20H4.70732C4.31668 20 4 19.6744 4 19.2727V15.2727C5.56256 15.2727 6.82927 13.9703 6.82927 12.3636C6.82927 10.757 5.56256 9.45455 4 9.45455V4.72727C4 4.32561 4.31668 4 4.70732 4H32.2927ZM30.878 6.18182H6.12195V7.76291L6.16409 7.78348C7.78298 8.59366 8.90813 10.2845 8.95001 12.2499L8.95122 12.3636C8.95122 14.3774 7.81411 16.118 6.16409 16.9438L6.12195 16.964V17.8182H30.878V16.9644L30.8359 16.9438C29.217 16.1336 28.0919 14.4427 28.05 12.4773L28.0488 12.3636C28.0488 10.3499 29.1859 8.60924 30.8359 7.78348L30.878 7.76255V6.18182Z" fill="black"/>
        <path d="M12.5122 15.6364C13.0982 15.6364 13.5732 16.1248 13.5732 16.7273V18.5455C13.5732 19.1479 13.0982 19.6364 12.5122 19.6364C11.9262 19.6364 11.4512 19.1479 11.4512 18.5455V16.7273C11.4512 16.1248 11.9262 15.6364 12.5122 15.6364ZM12.5122 9.81818C13.0982 9.81818 13.5732 10.3066 13.5732 10.9091V13.8182C13.5732 14.4207 13.0982 14.9091 12.5122 14.9091C11.9262 14.9091 11.4512 14.4207 11.4512 13.8182V10.9091C11.4512 10.3066 11.9262 9.81818 12.5122 9.81818ZM12.5122 4C13.0982 4 13.5732 4.48842 13.5732 5.09091V8C13.5732 8.60249 13.0982 9.09091 12.5122 9.09091C11.9262 9.09091 11.4512 8.60249 11.4512 8V5.09091C11.4512 4.48842 11.9262 4 12.5122 4Z" fill="black"/>
    </g>
</svg>
