<svg id="icon" viewBox="0 0 37 24" xmlns="http://www.w3.org/2000/svg">
    <g style="fill: var(--link-default, #D54716);" id="ticket" transform="translate(4, 4)" fill="var(--link-default)" fill-rule="nonzero">
        <path d="M32.2926829,4 C32.6833234,4 33,4.32561109 33,4.72727273 L33,9.45454545 C31.4374383,9.45454545 30.1707317,10.7569898 30.1707317,12.3636364 C30.1707317,13.9702829 31.4374383,15.2727273 33,15.2727273 L33,19.2727273 C33,19.6743889 32.6833234,20 32.2926829,20 L4.70731707,20 C4.31667664,20 4,19.6743889 4,19.2727273 L4,15.2727273 C5.56256173,15.2727273 6.82926829,13.9702829 6.82926829,12.3636364 C6.82926829,10.7569898 5.56256173,9.45454545 4,9.45454545 L4,4.72727273 C4,4.32561109 4.31667664,4 4.70731707,4 L32.2926829,4 Z M30.8780488,6.18181818 L6.12195122,6.18181818 L6.12195122,7.76290909 L6.16408965,7.78347584 C7.78297735,8.59366299 8.90812712,10.2845409 8.95000928,12.2499473 L8.95121951,12.3636364 C8.95121951,14.3773724 7.8141098,16.1180292 6.16408965,16.9437969 L6.12195122,16.964 L6.12195122,17.8181818 L30.8780488,17.8181818 L30.8780488,16.9643636 L30.8359104,16.9437969 C29.2170227,16.1336097 28.0918729,14.4427319 28.0499907,12.4773255 L28.0487805,12.3636364 C28.0487805,10.3499003 29.1858902,8.60924351 30.8359104,7.78347584 L30.8780488,7.76254545 L30.8780488,6.18181818 Z" id="Combined-Shape" fill-rule="nonzero"></path>
        <path d="M12.5121951,15.6363636 C13.0981558,15.6363636 13.5731707,16.1247803 13.5731707,16.7272727 L13.5731707,18.5454545 C13.5731707,19.147947 13.0981558,19.6363636 12.5121951,19.6363636 C11.9262345,19.6363636 11.4512195,19.147947 11.4512195,18.5454545 L11.4512195,16.7272727 C11.4512195,16.1247803 11.9262345,15.6363636 12.5121951,15.6363636 Z M12.5121951,9.81818182 C13.0981558,9.81818182 13.5731707,10.3065984 13.5731707,10.9090909 L13.5731707,13.8181818 C13.5731707,14.4206743 13.0981558,14.9090909 12.5121951,14.9090909 C11.9262345,14.9090909 11.4512195,14.4206743 11.4512195,13.8181818 L11.4512195,10.9090909 C11.4512195,10.3065984 11.9262345,9.81818182 12.5121951,9.81818182 Z M12.5121951,4 C13.0981558,4 13.5731707,4.48841664 13.5731707,5.09090909 L13.5731707,8 C13.5731707,8.60249245 13.0981558,9.09090909 12.5121951,9.09090909 C11.9262345,9.09090909 11.4512195,8.60249245 11.4512195,8 L11.4512195,5.09090909 C11.4512195,4.48841664 11.9262345,4 12.5121951,4 Z" id="Line"></path>
    </g>
</svg>
