<svg width="145" height="36" viewBox="0 0 145 36" fill="none" xmlns="http://www.w3.org/2000/svg">
    <g>
        <path style="fill:var(--link-default,#D54716)" d="M90.5889 25.9028C89.3768 26.535 88.1121 26.9916 86.7946 27.2725C85.4772 27.5535 84.1333 27.694 82.7632 27.694C81.3052 27.694 79.9614 27.4657 78.7317 27.0091C77.5021 26.5525 76.4394 25.8984 75.5435 25.0467C74.6476 24.195 73.9493 23.1633 73.4487 21.9516C72.9481 20.7398 72.6978 19.3877 72.6978 17.895C72.6978 16.4023 72.9481 15.0501 73.4487 13.8384C73.9493 12.6267 74.6476 11.595 75.5435 10.7433C76.4394 9.89156 77.5021 9.23741 78.7317 8.78083C79.9614 8.32424 81.3052 8.09595 82.7632 8.09595C84.2563 8.09595 85.6309 8.27595 86.8868 8.63595C88.1428 8.99595 89.2451 9.61497 90.1937 10.493L87.2953 13.654C86.7331 13.0745 86.1008 12.6355 85.3981 12.3369C84.6955 12.0384 83.8171 11.8891 82.7632 11.8891C81.8849 11.8891 81.09 12.0384 80.3786 12.3369C79.6671 12.6355 79.0567 13.0525 78.5473 13.5881C78.0379 14.1238 77.647 14.7603 77.3748 15.4979C77.1025 16.2355 76.9663 17.0345 76.9663 17.895C76.9663 18.773 77.1025 19.5764 77.3748 20.3052C77.647 21.034 78.0379 21.6662 78.5473 22.2018C79.0567 22.7374 79.6671 23.1545 80.3786 23.453C81.09 23.7516 81.8849 23.9008 82.7632 23.9008C83.6591 23.9008 84.432 23.7998 85.0819 23.5979C85.7319 23.3959 86.2501 23.1896 86.6365 22.9789V19.9496H83.2902V16.1564H90.5889V25.9028Z" fill="black"/>
        <path style="fill:var(--link-default,#D54716)" d="M106.03 27.2194H102.235V25.4809H102.183C102.042 25.7267 101.862 25.9726 101.643 26.2185C101.423 26.4643 101.155 26.6838 100.839 26.877C100.523 27.0702 100.163 27.2282 99.7586 27.3511C99.3546 27.4741 98.9154 27.5355 98.4411 27.5355C97.4398 27.5355 96.6274 27.3819 96.0038 27.0746C95.3802 26.7672 94.8971 26.3414 94.5546 25.797C94.2121 25.2526 93.9837 24.6116 93.8695 23.8741C93.7553 23.1365 93.6982 22.3375 93.6982 21.477V14.4175H97.6506V20.6867C97.6506 21.0555 97.6638 21.4375 97.6902 21.8326C97.7165 22.2277 97.7956 22.5921 97.9273 22.9258C98.059 23.2594 98.2611 23.5316 98.5333 23.7424C98.8056 23.9531 99.1965 24.0585 99.7059 24.0585C100.215 24.0585 100.628 23.9663 100.944 23.7819C101.26 23.5975 101.502 23.3516 101.669 23.0443C101.836 22.737 101.946 22.3902 101.998 22.0038C102.051 21.6175 102.077 21.2136 102.077 20.7921V14.4175H106.03V27.2194Z" fill="black"/>
        <path style="fill:var(--link-default,#D54716)" d="M108.875 14.4179H112.828V27.2198H108.875V14.4179ZM108.559 10.3877C108.559 9.75546 108.783 9.21546 109.231 8.76765C109.679 8.31985 110.219 8.09595 110.851 8.09595C111.484 8.09595 112.024 8.31985 112.472 8.76765C112.92 9.21546 113.144 9.75546 113.144 10.3877C113.144 11.0198 112.92 11.5598 112.472 12.0077C112.024 12.4555 111.484 12.6794 110.851 12.6794C110.219 12.6794 109.679 12.4555 109.231 12.0077C108.783 11.5598 108.559 11.0198 108.559 10.3877Z" fill="black"/>
        <path style="fill:var(--link-default,#D54716)" d="M129.112 27.2196H125.475V25.5337H125.423C125.265 25.762 125.058 25.9947 124.804 26.2318C124.549 26.4688 124.25 26.684 123.908 26.8771C123.565 27.0703 123.187 27.2283 122.775 27.3513C122.362 27.4742 121.936 27.5357 121.497 27.5357C120.548 27.5357 119.687 27.3732 118.914 27.0483C118.142 26.7235 117.478 26.2669 116.925 25.6786C116.372 25.0903 115.946 24.3922 115.647 23.5844C115.349 22.7766 115.199 21.8898 115.199 20.924C115.199 20.0283 115.335 19.1722 115.608 18.3557C115.88 17.5391 116.266 16.8147 116.767 16.1825C117.268 15.5503 117.878 15.0454 118.598 14.6679C119.318 14.2903 120.135 14.1015 121.049 14.1015C121.874 14.1015 122.643 14.2288 123.354 14.4835C124.066 14.7381 124.65 15.1727 125.107 15.7874H125.159V7.30542H129.112V27.2196ZM125.475 20.8186C125.475 19.8527 125.199 19.0713 124.645 18.4742C124.092 17.8771 123.315 17.5786 122.314 17.5786C121.312 17.5786 120.535 17.8771 119.982 18.4742C119.428 19.0713 119.152 19.8527 119.152 20.8186C119.152 21.7844 119.428 22.5659 119.982 23.163C120.535 23.7601 121.312 24.0586 122.314 24.0586C123.315 24.0586 124.092 23.7601 124.645 23.163C125.199 22.5659 125.475 21.7844 125.475 20.8186Z" fill="black"/>
        <path style="fill:var(--link-default,#D54716)" d="M144.394 25.0069C143.761 25.8147 142.962 26.4381 141.996 26.8772C141.03 27.3162 140.029 27.5357 138.992 27.5357C138.009 27.5357 137.082 27.3777 136.212 27.0616C135.343 26.7455 134.588 26.2933 133.946 25.705C133.305 25.1167 132.8 24.4099 132.431 23.5845C132.062 22.7591 131.878 21.8372 131.878 20.8186C131.878 19.8001 132.062 18.8781 132.431 18.0528C132.8 17.2274 133.305 16.5206 133.946 15.9323C134.588 15.344 135.343 14.8918 136.212 14.5757C137.082 14.2596 138.009 14.1016 138.992 14.1016C139.906 14.1016 140.736 14.2596 141.482 14.5757C142.229 14.8918 142.861 15.344 143.379 15.9323C143.898 16.5206 144.297 17.2274 144.578 18.0528C144.859 18.8781 145 19.8001 145 20.8186V22.0567H135.83C135.988 22.8118 136.331 23.4133 136.858 23.8611C137.385 24.3089 138.035 24.5328 138.808 24.5328C139.458 24.5328 140.007 24.3879 140.455 24.0981C140.903 23.8084 141.293 23.4352 141.627 22.9786L144.394 25.0069ZM141.047 19.3699C141.065 18.7025 140.845 18.1318 140.389 17.6577C139.932 17.1835 139.344 16.9464 138.623 16.9464C138.184 16.9464 137.798 17.0167 137.464 17.1572C137.13 17.2977 136.845 17.4777 136.608 17.6972C136.37 17.9167 136.186 18.1713 136.054 18.4611C135.923 18.7508 135.848 19.0538 135.83 19.3699H141.047Z" fill="black"/>
        <path style="fill:var(--color-body,#3C414B)" d="M72.0214 0C72.749 0 73.3388 0.589674 73.3388 1.31707V7.48193C69.7848 9.63687 67.4102 13.5412 67.4102 18C67.4102 22.4588 69.7848 26.3631 73.3388 28.5181V34.6829C73.3388 35.4103 72.749 36 72.0214 36H1.31746C0.589849 36 0 35.4103 0 34.6829V28.648C3.67548 26.5225 6.14816 22.5499 6.14816 18C6.14816 13.4501 3.67548 9.47748 0 7.35199V1.31707C0 0.589674 0.589849 0 1.31746 0H72.0214ZM69.8256 3.5122H3.51324V5.48824L3.55672 5.5218C7.30696 8.43738 9.60808 12.9311 9.66049 17.829L9.6614 18C9.6614 22.9642 7.35057 27.5287 3.55672 30.4782L3.51324 30.5115V32.4878H69.8256V30.3386L69.7793 30.3019C66.1561 27.3795 63.9482 22.9654 63.8979 18.1675L63.897 18C63.897 13.1375 66.114 8.65449 69.7793 5.69812L69.8256 5.66122V3.5122Z" fill="black"/>
        <path style="fill:var(--color-body,#3C414B)"  d="M16.6883 27.878C17.6584 27.878 18.4449 28.6642 18.4449 29.6341V33.3658C18.4449 34.3357 17.6584 35.1219 16.6883 35.1219C15.7181 35.1219 14.9316 34.3357 14.9316 33.3658V29.6341C14.9316 28.6642 15.7181 27.878 16.6883 27.878ZM16.6883 18.6585C17.6584 18.6585 18.4449 19.4447 18.4449 20.4146V25.0244C18.4449 25.9942 17.6584 26.7805 16.6883 26.7805C15.7181 26.7805 14.9316 25.9942 14.9316 25.0244V20.4146C14.9316 19.4447 15.7181 18.6585 16.6883 18.6585ZM16.6883 9.43899C17.6584 9.43899 18.4449 10.2252 18.4449 11.1951V15.8048C18.4449 16.7747 17.6584 17.5609 16.6883 17.5609C15.7181 17.5609 14.9316 16.7747 14.9316 15.8048V11.1951C14.9316 10.2252 15.7181 9.43899 16.6883 9.43899ZM16.6883 0.219482C17.6584 0.219482 18.4449 1.00571 18.4449 1.97558V6.58534C18.4449 7.5552 17.6584 8.34143 16.6883 8.34143C15.7181 8.34143 14.9316 7.5552 14.9316 6.58534V1.97558C14.9316 1.00571 15.7181 0.219482 16.6883 0.219482Z" fill="black"/>
        <path style="fill:var(--link-default,#D54716)"  d="M24.0132 8.56982H36.5291V12.363H28.1237V16.1562H35.8967V19.9493H28.1237V27.2196H24.0132V8.56982Z" fill="black"/>
        <path style="fill:var(--link-default,#D54716)" d="M39.4272 8.56982H43.5377V27.2196H39.4272V8.56982Z" fill="black"/>
        <path style="fill:var(--link-default,#D54716)" d="M47.2793 8.56982H54.2092C55.1753 8.56982 56.0887 8.65763 56.9495 8.83324C57.8102 9.00885 58.5612 9.31178 59.2023 9.74202C59.8435 10.1723 60.3529 10.7518 60.7306 11.4806C61.1083 12.2093 61.2971 13.1269 61.2971 14.2332C61.2971 15.322 61.1214 16.2352 60.7701 16.9727C60.4188 17.7103 59.9357 18.2986 59.3209 18.7376C58.7061 19.1767 57.9771 19.4884 57.1339 19.6727C56.2907 19.8571 55.3773 19.9493 54.3936 19.9493H51.3898V27.2196H47.2793V8.56982ZM51.3898 16.4723H54.1301C54.499 16.4723 54.8547 16.4371 55.1973 16.3669C55.5398 16.2967 55.8472 16.1781 56.1195 16.0113C56.3918 15.8445 56.6113 15.6162 56.7782 15.3264C56.9451 15.0367 57.0285 14.6723 57.0285 14.2332C57.0285 13.7591 56.9187 13.3771 56.6992 13.0874C56.4796 12.7976 56.1985 12.5737 55.856 12.4157C55.5134 12.2576 55.1314 12.1567 54.7098 12.1128C54.2882 12.0688 53.8842 12.0469 53.4977 12.0469H51.3898V16.4723Z" fill="black"/>
    </g>
</svg>
